<svg width="154" height="154" viewBox="0 0 154 154" fill="none" xmlns="http://www.w3.org/2000/svg" class="icon">
<path d="M133.894 63.7084C135.517 71.5955 135.363 79.3786 134.024 86.8468C132.666 94.4237 129.907 101.588 125.985 108.07C124.422 110.655 122.696 113.138 120.8 115.501C118.911 117.842 116.87 120.078 114.664 122.161C108.18 128.293 100.323 133.176 91.2079 135.95C83.9933 138.215 76.6903 139.062 69.5695 138.587C62.0708 138.078 54.8177 136.176 48.1268 133.046L47.4738 134.299C54.1378 138.11 61.4981 140.667 69.2143 141.833C76.7756 142.978 84.6474 142.744 92.5577 140.988C102.821 138.59 111.961 133.892 119.439 127.452C122.028 125.225 124.4 122.765 126.541 120.14C128.688 117.491 130.609 114.666 132.249 111.687C136.312 104.318 138.903 96.1103 139.636 87.5918C140.335 79.4971 139.337 71.1626 136.618 62.9783L133.894 63.7084Z" fill="#1F88C0"/>
<path d="M30.2101 118.301C27.2242 115.028 24.5544 111.412 22.3402 107.445C20.1825 103.577 18.4635 99.4052 17.1827 94.9811C16.6919 92.7704 16.3147 90.5813 16.0941 88.3811C15.1938 79.378 16.6513 70.6342 19.5146 62.4881C21.0495 58.1179 23.0935 53.9844 25.4346 50.02C28.5425 44.7515 32.2341 39.8242 36.7041 35.5588C43.2787 29.2889 51.2554 24.2912 60.524 21.4346C68.0683 19.1126 75.7122 18.2564 83.127 18.9434C88.2775 19.4184 93.3291 20.5417 98.0667 22.4229C103.428 24.5514 108.367 27.6429 112.813 31.312C117.185 34.9182 120.993 39.2142 124.2 43.9927C124.622 44.626 124.903 45.3489 125.426 45.903C125.83 46.3233 126.295 46.4888 126.77 46.8281L128.687 45.6095C128.57 45.0085 128.58 44.4982 128.328 43.9437C127.998 43.2135 127.374 42.6658 126.878 42.0421C121.641 35.4549 115.171 30.1101 107.95 26.0858C104.874 24.371 101.658 22.9218 98.3633 21.6696C94.7257 20.2814 90.9841 19.1388 87.1364 18.3354C78.3465 16.5038 69.0652 16.3581 59.7364 18.4951C49.6234 20.811 40.6061 25.383 33.2187 31.6944C28.0811 36.0869 23.6522 41.2637 20.358 47.0898C17.8857 51.4624 16.0768 56.2064 14.8743 61.1094C12.7111 69.9385 12.6939 79.2807 14.6418 88.6042C15.1039 90.8122 15.6411 93.0105 16.3337 95.2086C17.458 99.7679 19.0859 104.068 21.0774 108.105C23.1485 112.307 25.6196 116.215 28.4837 119.78L30.2101 118.301Z" fill="#1F88C0"/>
<path d="M123.197 51.9343C122.434 56.9299 125.919 61.6698 130.914 62.4324C133.551 62.8348 136.112 62.056 138.06 60.4987C139.802 59.1009 141.052 57.0782 141.413 54.7147C142.175 49.719 138.691 44.9791 133.695 44.2166C128.699 43.4541 123.959 46.9386 123.197 51.9343Z" stroke="#1F88C0" stroke-width="4.83701"/>
<path d="M112.485 72.2399C112.485 72.2399 114.096 70.7385 116.104 68.7675C119.632 65.3009 124.363 60.4561 124.363 60.4561L122.812 58.638C122.812 58.638 117.289 62.5606 113.31 65.5C111.055 67.1802 109.32 68.5374 109.32 68.5374L112.485 72.2399Z" fill="#1F88C0"/>
<path d="M67.792 116.159H102.651C104.599 116.159 106.176 114.581 106.176 112.633V77.6143C106.176 75.6664 104.599 74.0888 102.651 74.0888H50.8042C48.8564 74.0888 47.2788 75.6664 47.2788 77.6143V98.3127" stroke="#22B638" stroke-width="7.9512"/>
<path d="M59.8997 74.0888V57.2608C59.8997 48.0307 67.4975 40.4329 76.7276 40.4329C85.9577 40.4329 93.5555 48.0307 93.5555 57.2608V74.0888" stroke="#22B638" stroke-width="7.9512"/>
<path d="M57.119 122.077C57.4402 119.631 57.1196 117.24 56.2878 115.073C54.446 110.263 50.0802 106.559 44.6576 105.847C36.789 104.814 29.4612 110.44 28.4277 118.309C27.3942 126.177 33.0205 133.505 40.8891 134.539C48.7577 135.572 56.0855 129.946 57.119 122.077Z" stroke="#1F88C0" stroke-width="7.08977"/>
<path d="M72.8661 93.4321C72.8661 93.4321 63.9858 98.7264 57.608 102.845C53.9965 105.176 51.2648 107.133 51.2648 107.133L56.9272 114.369C56.9272 114.369 59.4742 112.18 62.6087 109.238C68.1386 104.037 75.4247 96.6943 75.4247 96.6943L72.8661 93.4321Z" fill="#1F88C0"/>
</svg>
