<svg width="675" height="675" viewBox="0 0 675 675" fill="none" xmlns="http://www.w3.org/2000/svg" class="icon">
<g clip-path="url(#clip0_2007_4)">
<path d="M664.008 291.35C647.458 280.21 603.978 275.46 572.368 283.97C570.668 252.48 554.428 225.94 524.718 202.8L513.728 195.42L506.398 206.49C491.998 228.35 485.928 257.49 488.068 283.98C489.768 300.3 495.438 318.64 506.398 331.95C465.248 355.82 427.328 350.4 259.368 350.4H0.0583793C-0.701621 388.33 5.39838 461.28 51.7884 520.67C56.9084 527.23 62.5284 533.58 68.6284 539.69C106.348 577.46 163.338 605.16 248.558 605.23C378.558 605.35 489.948 535.07 557.708 365.16C580.008 365.53 638.858 369.15 667.658 313.5C668.358 312.56 674.988 298.74 674.988 298.74L664.008 291.36V291.35ZM169.288 252.21H96.3684V325.13H169.288V252.21ZM263.498 252.21H190.578V325.13H263.498V252.21ZM357.708 252.21H284.788V325.13H357.708V252.21ZM451.918 252.21H378.998V325.13H451.918V252.21ZM75.0984 252.21H2.15838V325.13H75.0784V252.21H75.0984ZM169.308 160.1H96.3884V233.02H169.308V160.1ZM263.518 160.1H190.598V233.02H263.518V160.1ZM357.728 160.1H284.808V233.02H357.728V160.1ZM357.698 68H284.778V140.92H357.698V68Z" fill="#1D63ED"/>
</g>
<defs>
<clipPath id="clip0_2007_4">
<rect width="674.99" height="674.99" fill="white"/>
</clipPath>
</defs>
</svg>
