<svg width="26" height="29" viewBox="0 0 26 29" fill="none" xmlns="http://www.w3.org/2000/svg" class="icon">
<path fill-rule="evenodd" clip-rule="evenodd" d="M24.2415 18.1598V9.2144C24.2415 8.05113 23.6254 6.97493 22.6225 6.38562C20.47 5.12101 16.6673 2.88674 14.3385 1.5183C13.1085 0.795954 11.5807 0.812198 10.3668 1.56074C8.30555 2.83171 5.08969 4.81464 3.01384 6.09491C1.76189 6.86686 0.999451 8.23223 0.999451 9.70296V18.8619C0.999451 20.3208 1.7736 21.6699 3.03286 22.4061L10.6953 26.885C11.7138 27.4806 12.9716 27.4936 14.0026 26.9194C16.2402 25.6728 20.2031 23.466 22.486 22.1944C23.569 21.5907 24.2399 20.4485 24.2399 19.209V18.1597L24.2415 18.1598Z" fill="#FF4088"/>
<path fill-rule="evenodd" clip-rule="evenodd" d="M12.398 0H12.4183L12.4364 0.000219531H12.5399L12.5579 0.000951256H12.5601L12.5782 0.00168298H12.5802L12.5985 0.00241463H12.5999L12.6182 0.00314636H12.6204L12.638 0.00387808H12.6402L12.6577 0.00460981H12.6592L12.6775 0.00534146H12.6797L12.698 0.00680491H12.7002L12.7177 0.00826829H12.7192L12.7368 0.00973174H12.739L12.7572 0.0111952H12.7587L12.7763 0.0126586H12.7785L12.7968 0.014122H12.799L12.8172 0.0155854H12.8194L12.8377 0.0170488H12.8399L12.8575 0.0185122H12.8597L12.8772 0.0199757H12.8794L12.8977 0.021439H12.8999L12.9182 0.0236342H12.9204L12.9387 0.0258293H12.9402L12.9577 0.0280244H12.9599L12.9775 0.0302195H12.9797L12.998 0.0324147H13.0002L13.0185 0.0346098H13.0199L13.0375 0.0368049H13.0397L13.058 0.039H13.0602L13.0777 0.0419268L13.0799 0.0426586L13.0982 0.0455854H13.1004L13.118 0.0485122H13.1194L13.1377 0.051439H13.1399L13.1575 0.0543659H13.1597L13.1772 0.0572927H13.1787L13.197 0.0602195H13.1992L13.2168 0.0631464L13.219 0.0638781L13.2365 0.0668049L13.2387 0.0675366L13.2563 0.0711952H13.2585L13.276 0.074122H13.2782L13.2958 0.0777806H13.298L13.3163 0.081439H13.3177L13.3353 0.0850976H13.3375L13.355 0.0887562H13.3565L13.3748 0.0924147L13.377 0.0931464L13.3953 0.0968049H13.3968L13.4143 0.101195L13.4165 0.101927L13.4341 0.106317H13.4363L13.4546 0.110707L13.456 0.111439L13.4736 0.115098L13.4758 0.115829L13.4933 0.119488L13.4948 0.12022L13.5124 0.12461H13.5146L13.5321 0.129L13.5343 0.129732L13.5519 0.134122L13.5533 0.134854L13.5716 0.139244L13.5731 0.139976L13.5907 0.144366L13.5929 0.145098L13.6104 0.149488H13.6119L13.6294 0.15461H13.6316L13.6499 0.159L13.6521 0.159732L13.6697 0.164122H13.6719L13.6894 0.169244L13.6916 0.169976L13.7092 0.175098L13.7114 0.175829L13.729 0.180951L13.7311 0.181683L13.7487 0.186805L13.7502 0.187537L13.7677 0.192659L13.7699 0.19339L13.7875 0.198512L13.7897 0.199244L13.8072 0.204366L13.8094 0.205098L13.827 0.210951L13.8285 0.211683L13.846 0.217537H13.8482L13.8658 0.22339H13.868L13.8855 0.229244L13.8877 0.229976L13.9053 0.235829L13.9075 0.236561L13.925 0.242415L13.9265 0.243146L13.9441 0.249L13.9463 0.249732L13.9638 0.255586L13.9653 0.256317L13.9829 0.262171L13.9843 0.262902L14.0011 0.268756L14.0033 0.269488L14.0202 0.275342L14.0224 0.276073L14.0392 0.282659L14.0414 0.28339L14.059 0.289976L14.0611 0.290707L14.078 0.297293L14.0794 0.298025L14.097 0.303878L14.0985 0.30461L14.116 0.311195L14.1182 0.311927L14.1358 0.318512L14.138 0.319244L14.1548 0.325829L14.157 0.326561L14.1738 0.333878L14.1753 0.33461L14.1929 0.341195L14.195 0.341927L14.2119 0.349244L14.2141 0.349976L14.2316 0.357293L14.2338 0.358025L14.2514 0.365342L14.2529 0.366073L14.2704 0.37339L14.2719 0.374122L14.2887 0.381439L14.2902 0.382171L14.307 0.389488L14.3085 0.39022L14.326 0.397537L14.3275 0.398268L14.3443 0.405586L14.3465 0.406317L14.3633 0.413634L14.3655 0.414366L14.3824 0.421683L14.3838 0.422415L14.4007 0.430464L14.4029 0.431195L14.4197 0.439244L14.4219 0.439976L14.4387 0.448025L14.4402 0.448756L14.457 0.456805L14.4585 0.457537L14.4753 0.465586L14.4775 0.466317L14.4943 0.474366L14.4965 0.475098L14.5133 0.483146L14.5155 0.483878L14.5324 0.491927L14.5338 0.492659L14.5507 0.501439L14.5521 0.502903L14.569 0.510951L14.5704 0.511683L14.5865 0.520464L14.5887 0.521195L14.6055 0.529244L14.607 0.529976L14.6238 0.538756L14.626 0.539488L14.6421 0.548269L14.6443 0.549732L14.6611 0.558512L14.6633 0.559244L14.6802 0.568025L14.6816 0.568756L14.6977 0.577537L14.6999 0.579L14.7168 0.587781L14.7182 0.589244L14.7343 0.598756L14.7358 0.60022L14.7519 0.609732L14.7541 0.610464L14.7702 0.619976L14.7716 0.620708L14.7877 0.63022L14.7892 0.631683L14.8053 0.641195L14.8075 0.642659L14.8229 0.652171H14.8243L23.1146 5.52315L23.1285 5.5312L23.1299 5.53266L23.1438 5.54071L23.146 5.54144L23.1592 5.55022L23.1607 5.55169L23.1738 5.55973L23.1753 5.5612L23.1885 5.56925L23.1899 5.56998L23.2031 5.57803L23.2046 5.57876L23.2177 5.58681L23.2192 5.58754L23.2324 5.59559L23.2346 5.59632L23.2477 5.6051L23.2492 5.60583L23.2624 5.61461L23.2646 5.61534L23.2777 5.62339L23.2792 5.62412L23.2924 5.6329L23.2938 5.63437L23.307 5.64315L23.3085 5.64461L23.3209 5.65266L23.3231 5.65339L23.3363 5.66217L23.3377 5.6629L23.3509 5.67169L23.3524 5.67242L23.3648 5.6812L23.3663 5.68193L23.3787 5.69071L23.3802 5.69144L23.3926 5.70022L23.3941 5.70168L23.4065 5.71047L23.408 5.7112L23.4204 5.72071L23.4226 5.72217L23.4351 5.73095L23.4365 5.73169L23.449 5.74047L23.4504 5.7412L23.4629 5.74998L23.4643 5.75144L23.4768 5.76022L23.4782 5.76095L23.4907 5.76973L23.4921 5.7712L23.5046 5.77998L23.506 5.78144L23.5185 5.79095L23.5207 5.79242L23.5324 5.80193L23.5346 5.80339L23.547 5.8129L23.5492 5.81364L23.5616 5.82315L23.5631 5.82461L23.5755 5.83412L23.577 5.83559L23.5887 5.8451L23.5909 5.84656L23.6033 5.85681L23.6055 5.859L23.629 5.87803L23.6319 5.88022L23.6553 5.89998L23.6582 5.90217L23.6824 5.92193L23.6853 5.92412L23.7094 5.94388L23.7124 5.94608L23.7358 5.96583L23.7387 5.96876L23.7621 5.98851L23.7651 5.99071L23.7877 6.0112L23.7907 6.01339L23.8133 6.03388L23.8163 6.03608L23.839 6.05729L23.8419 6.05949L23.8638 6.07998L23.8668 6.08217L23.8894 6.10339L23.8924 6.10632L23.9143 6.12754L23.9172 6.13047L23.9392 6.15169L23.9421 6.15461L23.9633 6.17583L23.9663 6.17876L23.9875 6.20071L23.9904 6.20364L24.0116 6.22559L24.0138 6.22851L24.0351 6.25047L24.038 6.25339L24.0585 6.27534L24.0614 6.27827L24.0819 6.30022L24.0848 6.30315L24.1053 6.3251L24.1082 6.32803L24.1287 6.35071L24.1316 6.35364L24.1514 6.37705L24.1536 6.37998L24.1741 6.40266L24.177 6.40559L24.1968 6.429L24.1997 6.43193L24.2194 6.45534L24.2216 6.45827L24.2414 6.48169L24.2443 6.48461L24.2633 6.50803L24.2655 6.51095L24.2846 6.53437L24.2875 6.53729L24.3065 6.56144L24.3087 6.56437L24.327 6.58851L24.3292 6.59144L24.3475 6.61559L24.3497 6.61851L24.368 6.64266L24.3702 6.64632L24.3885 6.6712L24.3907 6.67412L24.409 6.69827L24.4111 6.70193L24.4287 6.72681L24.4309 6.72973L24.4485 6.75461L24.4507 6.75754L24.4682 6.78242L24.4704 6.78608L24.4872 6.81095L24.4894 6.81461L24.5063 6.84022L24.5085 6.84388L24.5246 6.86876L24.5268 6.87169L24.5429 6.89656L24.5451 6.89949L24.5619 6.9251L24.5641 6.92803L24.5802 6.95364L24.5824 6.9573L24.5977 6.9829L24.5999 6.98656L24.616 7.01217L24.6182 7.01583L24.6336 7.04144L24.6358 7.0451L24.6511 7.07144L24.6533 7.07437L24.668 7.10071L24.6702 7.10437L24.6848 7.13071L24.687 7.13437L24.7016 7.16071L24.7038 7.16437L24.7185 7.19071L24.7199 7.19437L24.7346 7.22144L24.736 7.2251L24.7499 7.25217L24.7514 7.25583L24.7653 7.2829L24.7675 7.28583L24.7807 7.31364L24.7821 7.3173L24.796 7.34437L24.7975 7.34803L24.8107 7.3751L24.8129 7.37876L24.8253 7.40656L24.8268 7.41022L24.8392 7.43803L24.8407 7.44169L24.8531 7.46949L24.8546 7.47315L24.867 7.50095L24.8685 7.50461L24.8802 7.53242L24.8816 7.53608L24.8933 7.56388L24.8948 7.56754L24.9058 7.59608L24.9072 7.59973L24.9182 7.62754L24.9197 7.6312L24.9307 7.65973L24.9321 7.66339L24.9431 7.69193L24.9446 7.69559L24.9555 7.72412L24.957 7.72778L24.9672 7.75632L24.9687 7.75998L24.9782 7.78852L24.9797 7.79217L24.9892 7.82071L24.9907 7.82437L25.0002 7.85291L25.0016 7.85656L25.0111 7.88583L25.0119 7.88949L25.0207 7.91803L25.0221 7.92169L25.0309 7.95095L25.0316 7.95461L25.0404 7.98388L25.0419 7.98754L25.0507 8.01681L25.0521 8.02047L25.0602 8.04973L25.0616 8.05339L25.0697 8.08266L25.0704 8.08632L25.0777 8.11559L25.0792 8.11998L25.0872 8.14998L25.088 8.15364L25.0953 8.18364L25.0968 8.1873L25.1033 8.2173L25.1048 8.22095L25.1121 8.25095L25.1129 8.25534L25.1194 8.28534L25.1202 8.289L25.1268 8.319L25.1275 8.32266L25.1333 8.35266L25.1341 8.35632L25.1399 8.38632L25.1407 8.38998L25.1465 8.41998L25.1472 8.42364L25.1524 8.45437L25.1531 8.45803L25.1582 8.48803L25.159 8.49242L25.1641 8.52315L25.1648 8.52754L25.1692 8.55827L25.1699 8.56266L25.1743 8.59266V8.59559L25.1765 8.61169V8.61315L25.178 8.62852V8.63071L25.1802 8.64608V8.64754L25.1824 8.66291V8.6651L25.1846 8.68047L25.1853 8.68266L25.1875 8.69803V8.70022L25.189 8.71559L25.1897 8.71705L25.1911 8.73242L25.1919 8.73461L25.1933 8.74998V8.75217L25.1948 8.76754L25.1955 8.76974L25.197 8.7851L25.1977 8.7873L25.1992 8.80266V8.80486L25.2007 8.82022V8.82242L25.2021 8.83778V8.83998L25.2036 8.85534V8.85754L25.2051 8.87291V8.8751L25.2058 8.89047V8.89266L25.2065 8.90876V8.91095L25.208 8.92705V8.92852L25.2087 8.94388V8.94608L25.2094 8.96144V8.96364L25.2102 8.979V8.9812L25.2109 8.99656V8.99876L25.2116 9.01486V9.01705L25.2124 9.03242V9.03461L25.2131 9.04998V9.05144L25.2138 9.06681V19.2814L25.2131 19.2983V19.3195L25.2124 19.3363V19.3385L25.2116 19.3546V19.3561L25.2109 19.3729V19.3751L25.2102 19.3912V19.3927L25.2094 19.4088V19.411L25.2087 19.4271L25.208 19.4293L25.2072 19.4453V19.4475L25.2065 19.4636V19.4651L25.2058 19.4819V19.4841L25.2043 19.501V19.5024L25.2029 19.5193V19.5214L25.2014 19.5375V19.5397L25.2007 19.5558V19.558L25.1992 19.5741V19.5763L25.1977 19.5924V19.5946L25.1963 19.6107V19.6129L25.1948 19.629L25.1941 19.6305L25.1926 19.6473L25.1919 19.6495L25.1904 19.6656V19.6678L25.189 19.6839L25.1882 19.6861L25.186 19.7022V19.7044L25.1838 19.7205V19.7219L25.1816 19.738V19.7402L25.1794 19.7563L25.1787 19.7585L25.1765 19.7753L25.1758 19.7775L25.1736 19.7936L25.1729 19.7958L25.1707 19.8119V19.8141L25.1685 19.8302V19.8324L25.1663 19.8485L25.1655 19.8507L25.1633 19.8668L25.1626 19.869L25.1597 19.8851V19.8866L25.1575 19.9027V19.9041L25.1546 19.9202L25.1538 19.9224L25.1516 19.9385L25.1509 19.9407L25.1487 19.9568V19.9583L25.1458 19.9744V19.9758L25.1429 19.9919V19.9934L25.1399 20.0095V20.0117L25.137 20.0271L25.1363 20.0293L25.1333 20.0446L25.1326 20.0468L25.1297 20.0629L25.129 20.0651L25.1253 20.0812V20.0827L25.1216 20.0988V20.1002L25.1187 20.1156V20.1178L25.1151 20.1339V20.1353L25.1121 20.1514L25.1114 20.1529L25.1077 20.1683V20.1697L25.1041 20.1851V20.1873L25.1004 20.2027L25.0997 20.2049L25.096 20.2202L25.0953 20.2224L25.0916 20.2378L25.0909 20.2393L25.0872 20.2546L25.0865 20.2561L25.0829 20.2714L25.0821 20.2736L25.0777 20.289L25.077 20.2912L25.0733 20.3066L25.0726 20.3088L25.0682 20.3241V20.3263L25.0638 20.3424L25.0631 20.3446L25.0587 20.36V20.3622L25.0543 20.3775L25.0536 20.3797L25.0492 20.3951L25.0485 20.3973L25.0441 20.4134L25.0433 20.4149L25.039 20.4302L25.0382 20.4317L25.0338 20.4471L25.0331 20.4493L25.028 20.4646L25.0272 20.4668L25.0229 20.4822L25.0221 20.4836L25.0177 20.499L25.017 20.5012L25.0126 20.5166L25.0119 20.518L25.0068 20.5334L25.006 20.5356L25.0009 20.551L25.0002 20.5532L24.9951 20.5685L24.9943 20.5707L24.9892 20.5861L24.9885 20.5883L24.9833 20.6036L24.9826 20.6051L24.9775 20.6205L24.9768 20.6227L24.9716 20.638L24.9709 20.6402L24.9658 20.6556L24.9651 20.6571L24.9599 20.6724L24.9592 20.6746L24.9541 20.69L24.9533 20.6922L24.9475 20.7068L24.9468 20.709L24.9416 20.7236L24.9409 20.7258L24.9358 20.7405L24.9351 20.7427L24.9299 20.758L24.9292 20.7602L24.9233 20.7756L24.9226 20.7778L24.9168 20.7924L24.916 20.7946L24.9102 20.8093L24.9094 20.8114L24.9036 20.8261L24.9029 20.8283L24.897 20.8429L24.8963 20.8451L24.8904 20.8597L24.8897 20.8619L24.8838 20.8766L24.8831 20.878L24.8765 20.8927L24.8758 20.8949L24.8692 20.9102L24.8685 20.9124L24.8626 20.9271L24.8619 20.9293L24.8553 20.9439L24.8546 20.9461L24.848 20.9607L24.8472 20.9629L24.8407 20.9775L24.8399 20.979L24.8333 20.9936L24.8326 20.9958L24.826 21.0105L24.8253 21.0119L24.8187 21.0266L24.818 21.028L24.8114 21.0427L24.8107 21.0441L24.8041 21.0588L24.8033 21.0602L24.796 21.0749L24.7953 21.0763L24.788 21.0902L24.7872 21.0924L24.7807 21.1071L24.7799 21.1085L24.7726 21.1224L24.7719 21.1246L24.7653 21.1393L24.7646 21.1407L24.7572 21.1554L24.7565 21.1575L24.7492 21.1722L24.7485 21.1736L24.7411 21.1875L24.7404 21.189L24.7331 21.2036L24.7324 21.2058L24.7251 21.2205L24.7243 21.2227L24.717 21.2373L24.7155 21.2395L24.7082 21.2534L24.7075 21.2549L24.7002 21.2695L24.6994 21.2717L24.6921 21.2863L24.6914 21.2885L24.6833 21.3024L24.6819 21.3039L24.6738 21.3178L24.6731 21.3193L24.6651 21.3332L24.6643 21.3346L24.6563 21.3485L24.6555 21.35L24.6475 21.3639L24.6468 21.3654L24.6387 21.3793L24.638 21.3814L24.6299 21.3954L24.6292 21.3968L24.6211 21.4107L24.6204 21.4129L24.6124 21.4268L24.6109 21.4283L24.6029 21.4422L24.6014 21.4436L24.5933 21.4575L24.5926 21.459L24.5846 21.4729L24.5838 21.4751L24.5751 21.489L24.5743 21.4905L24.5663 21.5036L24.5655 21.5058L24.5575 21.519L24.556 21.5205L24.5472 21.5344L24.5465 21.5366L24.5377 21.5497L24.5363 21.5512L24.5275 21.5644L24.5268 21.5658L24.518 21.5797L24.5165 21.5819L24.5077 21.5951L24.5063 21.5966L24.4975 21.6097L24.4968 21.6112L24.488 21.6251L24.4872 21.6266L24.4785 21.6397L24.477 21.6412L24.4675 21.6544L24.4668 21.6558L24.458 21.669L24.4572 21.6705L24.4477 21.6836L24.447 21.6851L24.4382 21.6983L24.4368 21.6997L24.428 21.7129L24.4265 21.7144L24.417 21.7275L24.4155 21.729L24.4068 21.7422L24.406 21.7436L24.3965 21.7568L24.3951 21.759L24.3863 21.7722L24.3848 21.7736L24.3753 21.7868L24.3738 21.7883L24.3643 21.8014L24.3629 21.8029L24.3533 21.8161L24.3519 21.8175L24.3424 21.8307L24.3416 21.8322L24.3321 21.8446L24.3307 21.8461L24.3211 21.8585L24.3204 21.86L24.3102 21.8724L24.3087 21.8739L24.2992 21.8863L24.2985 21.8878L24.289 21.901L24.2875 21.9024L24.2772 21.9156L24.2758 21.9171L24.2655 21.9295L24.2641 21.931L24.2538 21.9434L24.2531 21.9449L24.2429 21.9573L24.2414 21.9588L24.2311 21.9712L24.2297 21.9727L24.2194 21.9851L24.218 21.9866L24.2077 21.999L24.2063 22.0005L24.196 22.0129L24.1953 22.0144L24.1851 22.0268L24.1836 22.0283L24.1726 22.0407L24.1711 22.0422L24.1609 22.0546L24.1594 22.0561L24.1492 22.0685L24.1477 22.07L24.1375 22.0824L24.136 22.0839L24.1258 22.0963L24.1243 22.0978L24.1141 22.1095L24.1126 22.111L24.1016 22.1234L24.1002 22.1249L24.0899 22.1373L24.0885 22.1388L24.0775 22.1512L24.076 22.1527L24.0658 22.1651L24.0643 22.1666L24.0533 22.1783L24.0519 22.1797L24.0409 22.1914L24.0394 22.1929L24.0285 22.2046L24.027 22.2061L24.016 22.2178L24.0146 22.2193L24.0036 22.231L24.0021 22.2324L23.9911 22.2441L23.9897 22.2456L23.9787 22.2573L23.9772 22.2588L23.9663 22.2705L23.9648 22.2719L23.9531 22.2836L23.9516 22.2851L23.9407 22.2968L23.9392 22.2983L23.9282 22.3093L23.9268 22.3107L23.9151 22.3224L23.9129 22.3239L23.9011 22.3356L23.8997 22.3371L23.888 22.348L23.8865 22.3495L23.8748 22.3612L23.8733 22.3627L23.8616 22.3736L23.8602 22.3751L23.8485 22.3861L23.847 22.3875L23.8353 22.3985L23.8338 22.4L23.8221 22.411L23.8207 22.4124L23.809 22.4234L23.8075 22.4249L23.7958 22.4358L23.7943 22.4373L23.7819 22.4483L23.7804 22.449L23.7687 22.46L23.7672 22.4614L23.7548 22.4724L23.7533 22.4739L23.7409 22.4849L23.7394 22.4856L23.727 22.4966L23.7255 22.498L23.7131 22.5083L23.7109 22.5097L23.6985 22.52L23.697 22.5214L23.6846 22.5324L23.6831 22.5339L23.6707 22.5449L23.6692 22.5463L23.6568 22.5573L23.6553 22.5588L23.6429 22.569L23.6414 22.5705L23.6282 22.5807L23.6268 22.5814L23.6143 22.5917L23.6129 22.5932L23.6004 22.6034L23.5982 22.6049L23.5858 22.6151L23.5843 22.6166L23.5719 22.6268L23.5704 22.6283L23.558 22.6385L23.5565 22.64L23.5433 22.6502L23.5419 22.6517L23.5294 22.6612L23.528 22.6627L23.5148 22.6729L23.5133 22.6744L23.5002 22.6846L23.4987 22.6861L23.4855 22.6963L23.4841 22.6978L23.4709 22.708L23.4694 22.7088L23.4563 22.7183L23.4548 22.719L23.4416 22.7285L23.4402 22.7293L23.427 22.7388L23.4248 22.7395L23.4116 22.749L23.4102 22.7505L23.397 22.76L23.3955 22.7614L23.3824 22.771L23.3809 22.7724L23.3677 22.7819L23.3655 22.7834L23.3524 22.7929L23.3509 22.7936L23.337 22.8032L23.3348 22.8039L23.3209 22.8134L23.3194 22.8149L23.3055 22.8244L23.3041 22.8258L23.2902 22.8346L23.2887 22.8361L23.2748 22.8456L23.2733 22.8471L23.2602 22.8566L23.258 22.858L23.2441 22.8668L23.2426 22.8675L23.2287 22.8763L23.2265 22.8771L23.2126 22.8858L23.2111 22.8873L23.1972 22.8961L23.1958 22.8975L23.1819 22.9063L23.1804 22.9071L23.1665 22.9158L23.1643 22.9166L23.1504 22.9254L23.149 22.9268L23.1351 22.9356L23.1329 22.9363L23.119 22.9451L23.1168 22.9466L23.1029 22.9553L23.1007 22.9568L23.086 22.9656L23.0846 22.9671L23.0707 22.9751L23.0685 22.9758L23.0546 22.9839L23.0531 22.9853L23.0385 22.9941L23.0363 22.9956L23.0216 23.0036L23.0202 23.0051L23.0063 23.0132L23.0041 23.0139L22.9894 23.0219L22.9872 23.0227L22.9726 23.0307L22.9711 23.0314L22.9572 23.0395L22.9565 23.0402L14.4738 27.7671H14.4731L14.4599 27.7751L14.4577 27.7758L14.4438 27.7839L14.4416 27.7854L14.4277 27.7927L14.4255 27.7934L14.4116 27.8007L14.4102 27.8014L14.3963 27.8088L14.3941 27.8095L14.3802 27.8168L14.378 27.8175L14.3641 27.8249L14.3619 27.8256L14.348 27.8329L14.3465 27.8336L14.3326 27.841L14.3311 27.8417L14.3172 27.8483L14.3158 27.849L14.3011 27.8563L14.2997 27.8578L14.2858 27.8651L14.2843 27.8658L14.2704 27.8724L14.269 27.8732L14.255 27.8797L14.2536 27.8805L14.2397 27.8878L14.2382 27.8885L14.2236 27.8951L14.2221 27.8958L14.2082 27.9024L14.2068 27.9032L14.1921 27.9097L14.1907 27.9105L14.1768 27.9171L14.1753 27.9178L14.1614 27.9244L14.1592 27.9258L14.1446 27.9324L14.1431 27.9332L14.1285 27.939L14.127 27.9397L14.1124 27.9463L14.1109 27.9478L14.0963 27.9544L14.0941 27.9551L14.0802 27.961L14.0787 27.9617L14.0641 27.9683L14.0626 27.969L14.048 27.9749L14.0465 27.9756L14.0319 27.9814L14.0304 27.9822L14.0158 27.988L14.0136 27.9888L13.999 27.9946L13.9968 27.9954L13.9821 28.0012L13.9799 28.0019L13.966 28.0078L13.9646 28.0085L13.9499 28.0136L13.9485 28.0144L13.9338 28.0202L13.9316 28.021L13.917 28.0268L13.9148 28.0275L13.9002 28.0334L13.898 28.0341L13.8833 28.0393L13.8811 28.04L13.8665 28.0458L13.8643 28.0466L13.8497 28.0517L13.8482 28.0524L13.8336 28.0575L13.8314 28.0583L13.8168 28.0634L13.8146 28.0641L13.7999 28.0693L13.7977 28.07L13.7831 28.0751L13.7816 28.0758L13.767 28.081L13.7524 28.0861L13.7502 28.0868L13.7348 28.0912L13.7326 28.0919L13.718 28.0963L13.7165 28.0971L13.7019 28.1022L13.7004 28.1029L13.685 28.1073L13.6829 28.108L13.6682 28.1124L13.666 28.1132L13.6514 28.1175L13.6492 28.1183L13.6338 28.1234L13.6309 28.1241L13.6016 28.1329L13.598 28.1344L13.568 28.1432L13.5643 28.1439L13.5343 28.1527L13.5307 28.1534L13.5007 28.1615L13.497 28.1629L13.467 28.171L13.4633 28.1717L13.4333 28.1797L13.429 28.1805L13.399 28.1878L13.3953 28.1885L13.3653 28.1958L13.3609 28.1966L13.3309 28.2039L13.3272 28.2046L13.2972 28.2112L13.2936 28.2119L13.2629 28.2185L13.2585 28.2193L13.2277 28.2258L13.2241 28.2266L13.1933 28.2324L13.1897 28.2332L13.1597 28.2383L13.156 28.239L13.126 28.2449L13.1224 28.2456L13.0916 28.2507L13.088 28.2514L13.0572 28.2566L13.0536 28.2573L13.0229 28.2617L13.0192 28.2624L12.9885 28.2668L12.9848 28.2675L12.9541 28.2719L12.9504 28.2727L12.9197 28.2771L12.9153 28.2778L12.8846 28.2814L12.8809 28.2822L12.8502 28.2858L12.8465 28.2866L12.8158 28.2902L12.785 28.2932H12.7814L12.7507 28.2954L12.747 28.2961L12.7163 28.2983H12.7126L12.6819 28.3005H12.6782L12.6475 28.3027L12.6431 28.3034L12.6124 28.3056H12.6087L12.578 28.3071H12.5743L12.5436 28.3085H12.5392L12.5085 28.3093H12.5048L12.4741 28.31H12.4704L12.4397 28.3107H12.3314L12.3007 28.31L12.2699 28.3093H12.2655L12.2348 28.3085H12.2341L12.2034 28.3071L12.1998 28.3063L12.169 28.3049H12.1654L12.1346 28.3034L12.131 28.3027L12.1002 28.3012H12.0966L12.0659 28.299L12.0622 28.2983L12.0315 28.2954L12.0271 28.2946L11.9963 28.2917L11.992 28.291L11.9612 28.288L11.9576 28.2873L11.9268 28.2844H11.9232L11.8924 28.2814L11.8888 28.2807L11.858 28.2771H11.8537L11.8229 28.2734L11.8185 28.2727L11.7878 28.2683L11.7841 28.2675L11.7534 28.2632L11.7498 28.2624L11.719 28.258L11.7154 28.2573L11.6846 28.2529L11.681 28.2522L11.651 28.2471H11.6488L11.618 28.2412L11.6141 28.2405L11.5841 28.2346L11.5804 28.2339L11.5504 28.228L11.5468 28.2273L11.5168 28.2214L11.5124 28.2207L11.482 28.2149L11.4783 28.2141L11.4483 28.2075L11.4439 28.2061L11.4139 28.1995L11.4102 28.1988L11.3802 28.1915L11.3761 28.19L11.3461 28.1827L11.3425 28.1812L11.3125 28.1732L11.3088 28.1724L11.2788 28.1644L11.2752 28.1629L11.2452 28.1549L11.2415 28.1534L11.2115 28.1454L11.2079 28.1439L11.1779 28.1351L11.1735 28.1336L11.1435 28.1249L11.1398 28.1234L11.1098 28.1146L11.1061 28.1132L11.0761 28.1044L11.0725 28.1036L11.0434 28.0941L11.0404 28.0934L11.0251 28.0883H11.0231L11.0085 28.0839L11.0063 28.0832L10.9916 28.078L10.9894 28.0773L10.9748 28.0722L10.9726 28.0714L10.958 28.0663L10.9558 28.0656L10.9411 28.0605L10.939 28.0597L10.9243 28.0546L10.9229 28.0539L10.9082 28.0488L10.9068 28.048L10.8921 28.0429L10.8907 28.0422L10.876 28.0363L10.8738 28.0356L10.8592 28.0297L10.857 28.029L10.8424 28.0232L10.8409 28.0224L10.8263 28.0166L10.8241 28.0158L10.8094 28.01L10.808 28.0093L10.7933 28.0034L10.7911 28.0027L10.7765 27.9968L10.775 27.9961L10.7604 27.9902L10.759 27.9895L10.7443 27.9836L10.7421 27.9829L10.7275 27.9771L10.7253 27.9763L10.7107 27.9705L10.7085 27.9697L10.6938 27.9639L10.6916 27.9632L10.677 27.9573L10.6755 27.9566L10.6609 27.95L10.6587 27.9493L10.6448 27.9427L10.6433 27.9419L10.6287 27.9354L10.6272 27.9346L10.6126 27.928L10.6111 27.9273L10.5965 27.9215L10.5943 27.9207L10.5804 27.9141L10.5782 27.9134L10.5636 27.9068L10.5614 27.9061L10.5475 27.8995L10.546 27.898L10.5321 27.8915L10.5307 27.8907L10.5168 27.8841L10.5153 27.8834L10.5007 27.8768L10.4992 27.8754L10.4846 27.868L10.4831 27.8666L10.4692 27.86L10.467 27.8593L10.4524 27.8527L10.4509 27.8512L10.437 27.8439L10.4348 27.8432L10.4202 27.8358L10.4187 27.8351L10.4048 27.8278L10.4026 27.8271L10.3887 27.8197L10.3872 27.819L10.3733 27.8117L10.3711 27.8102L10.3572 27.8029L10.3558 27.8022L10.3419 27.7949L10.3404 27.7941L10.3265 27.7868L10.3243 27.7854L10.3104 27.778L10.309 27.7773L10.295 27.7693L10.2929 27.7678L10.279 27.7605L10.2768 27.7597L10.2629 27.7524L10.2607 27.7517L10.2468 27.7444L10.2446 27.7436L10.2307 27.7356L10.2285 27.7349L10.2153 27.7268L10.2131 27.7261L10.1999 27.718L10.1992 27.7173L2.5309 23.2414L2.53017 23.2407L2.51407 23.2312L2.51261 23.2305L2.49651 23.221L2.49432 23.2202L2.47749 23.2107L2.47529 23.21L2.4592 23.1997L2.45773 23.199L2.44163 23.1888L2.44017 23.1873L2.42407 23.1771L2.42261 23.1756L2.40651 23.1654L2.40432 23.1646L2.38822 23.1551L2.38602 23.1536L2.36993 23.1434L2.36846 23.1419L2.35237 23.1317H2.3561L2.34 23.1214L2.33781 23.12L2.32171 23.1097L2.32024 23.1083L2.30415 23.098L2.3021 23.0966L2.286 23.0856L2.28381 23.0841L2.26771 23.0732L2.26624 23.0717L2.25015 23.0614L2.24868 23.06L2.23259 23.049L2.23112 23.0475L2.21502 23.0366L2.21356 23.0351L2.1982 23.0241L2.196 23.0227L2.18027 23.0117L2.17881 23.0102L2.16344 22.9993L2.16161 22.9978L2.14624 22.9868L2.14427 22.9853L2.1289 22.9744L2.12744 22.9736L2.11207 22.9627L2.11061 22.9612L2.09546 22.9502L2.094 22.9488L2.07893 22.9378L2.07673 22.9371L2.06137 22.9261L2.0599 22.9246L2.04454 22.9129L2.04307 22.9114L2.02771 22.9005L2.02581 22.899L2.01044 22.8873L2.00854 22.8858L1.9939 22.8741L1.99244 22.8727L1.97781 22.861L1.97634 22.8602L1.96171 22.8485L1.96024 22.8471L1.94561 22.8354L1.94415 22.8339L1.92951 22.8222L1.92805 22.8207L1.91341 22.809L1.91195 22.8075L1.89732 22.7958L1.89585 22.7944L1.88122 22.7827L1.87976 22.7812L1.86512 22.7688L1.86366 22.768L1.84902 22.7563L1.84756 22.7549L1.83337 22.7432L1.8319 22.7417L1.81727 22.7293L1.8158 22.7278L1.80117 22.7161L1.79971 22.7146L1.78507 22.7022L1.78361 22.7014L1.76927 22.6897L1.7678 22.6883L1.7539 22.6766L1.75244 22.6751L1.73854 22.6627L1.73707 22.6612L1.72317 22.6488L1.72171 22.6473L1.7078 22.6349L1.70634 22.6334L1.69244 22.621L1.69098 22.6195L1.67707 22.6071L1.67561 22.6056L1.66171 22.5924L1.66024 22.5917L1.64634 22.5793L1.64415 22.5778L1.63061 22.5646L1.62915 22.5632L1.61524 22.5507L1.61378 22.5493L1.60017 22.5361L1.59871 22.5346L1.58554 22.5214L1.58407 22.52L1.5709 22.5068L1.56944 22.5053L1.55554 22.4922L1.55407 22.4907L1.54017 22.4775L1.53871 22.4768L1.52554 22.4636L1.52407 22.4622L1.5109 22.449L1.50944 22.4475L1.49627 22.4344L1.49481 22.4329L1.48163 22.4197L1.48017 22.4183L1.467 22.4051L1.46554 22.4036L1.45237 22.3905L1.4509 22.389L1.43846 22.3758L1.437 22.3744L1.42383 22.3612L1.42237 22.3597L1.4092 22.3458L1.40773 22.3444L1.39529 22.3305L1.39383 22.329L1.38139 22.3151L1.37993 22.3136L1.36676 22.2997L1.36529 22.2983L1.35285 22.2844L1.35139 22.2829L1.33895 22.269L1.33749 22.2675L1.32505 22.2536L1.32359 22.2522L1.31115 22.2383L1.30968 22.2368L1.29724 22.2229L1.29651 22.2214L1.2848 22.2075L1.28334 22.2061L1.2709 22.1922L1.26944 22.1907L1.25627 22.1761L1.2548 22.1746L1.24237 22.1607L1.2409 22.1593L1.22846 22.1446L1.227 22.1432L1.21529 22.1293L1.21456 22.1278L1.20285 22.1139L1.20139 22.1124L1.18968 22.0978L1.18822 22.0963L1.17578 22.0817L1.17432 22.0802L1.16261 22.0663L1.16115 22.0649L1.14871 22.051L1.14724 22.0495L1.13554 22.0356L1.13407 22.0341L1.12237 22.0195L1.1209 22.018L1.1092 22.0034L1.10773 22.0019L1.09602 21.9873L1.09456 21.9858L1.08285 21.9712L1.08139 21.9697L1.06968 21.9551L1.06895 21.9536L1.05798 21.939L1.05651 21.9375L1.04554 21.9229L1.0448 21.9214L1.03383 21.9068L1.03237 21.9054L1.02139 21.89L1.01993 21.8885L1.00895 21.8739L1.00749 21.8724L0.996512 21.8578L0.995781 21.8563L0.984805 21.841L0.984073 21.8395L0.973098 21.8241L0.972366 21.8227L0.96139 21.808L0.960659 21.8066L0.949683 21.7919L0.94822 21.7905L0.937244 21.7751L0.935781 21.7736L0.924805 21.7583L0.923342 21.7561L0.913098 21.7407L0.911634 21.7393L0.90139 21.7239L0.899927 21.7224L0.889683 21.7071L0.88822 21.7056L0.877976 21.6902L0.877244 21.6888L0.867 21.6734L0.865537 21.6712L0.855293 21.6558L0.853829 21.6544L0.843585 21.639L0.842122 21.6375L0.831878 21.6222L0.830415 21.6207L0.820171 21.6054L0.818707 21.6039L0.809195 21.5885L0.808463 21.5871L0.798951 21.5717L0.797488 21.5695L0.787244 21.5541L0.78578 21.5519L0.775537 21.5366L0.774805 21.5351L0.764561 21.519L0.763829 21.5168L0.754317 21.5014L0.752854 21.5L0.743341 21.4846L0.741878 21.4832L0.732366 21.4671L0.730902 21.4649L0.72139 21.4495L0.720659 21.448L0.711146 21.4319L0.710415 21.4305L0.700902 21.4151L0.699439 21.4129L0.689927 21.3968L0.688463 21.3946L0.678951 21.3785L0.677488 21.3763L0.668707 21.3602L0.667244 21.3588L0.657732 21.3427L0.657 21.3412L0.64822 21.3251L0.647488 21.3236L0.638707 21.3075L0.637976 21.3053L0.629195 21.2893L0.627732 21.2871L0.618951 21.271L0.61822 21.2688L0.609439 21.2519L0.608707 21.2505L0.599927 21.2344L0.599195 21.2322L0.590415 21.2161L0.589683 21.2139L0.580902 21.1978L0.580171 21.1956L0.572122 21.1788L0.57139 21.1773L0.56261 21.1605L0.561878 21.1583L0.553098 21.1414L0.551634 21.14L0.543585 21.1232L0.542854 21.1217L0.534805 21.1056L0.534073 21.1034L0.526024 21.0866V21.0873L0.517976 21.0705L0.516512 21.0683L0.508463 21.0514L0.507732 21.0493L0.499683 21.0332L0.498951 21.031L0.490902 21.0141L0.490171 21.0127L0.482122 20.9958L0.48139 20.9944L0.474073 20.9775L0.473341 20.9761L0.465293 20.9593L0.464561 20.9578L0.456512 20.941L0.455781 20.9395L0.447732 20.9227L0.447 20.9205L0.439683 20.9036L0.438951 20.9022L0.430902 20.8854L0.430171 20.8832L0.422122 20.8663L0.42139 20.8649L0.414073 20.848L0.413342 20.8466L0.406024 20.8297L0.405293 20.8275L0.397976 20.8107L0.397244 20.8093L0.390659 20.7924L0.389927 20.791L0.38261 20.7741L0.381878 20.7719L0.375293 20.7544L0.374561 20.7529L0.367244 20.7361L0.366512 20.7339L0.359927 20.7178L0.359195 20.7156L0.351878 20.698L0.351146 20.6966L0.344561 20.679L0.343829 20.6768L0.337244 20.6593L0.336512 20.6578L0.329927 20.6402L0.329195 20.638L0.32261 20.6205L0.321878 20.619L0.315293 20.6014L0.314561 20.6L0.308707 20.5824L0.307976 20.5802L0.30139 20.5627L0.300659 20.5612L0.294805 20.5436L0.294073 20.5414L0.28822 20.5239L0.287488 20.5217L0.280902 20.5041L0.280171 20.5019L0.274317 20.4844L0.273585 20.4829L0.267732 20.4653L0.267 20.4639L0.261146 20.4463L0.260415 20.4441L0.254561 20.4266L0.253829 20.4244L0.247976 20.4068L0.247244 20.4046L0.24139 20.3871L0.240659 20.3849L0.234805 20.3673L0.234146 20.3652L0.229024 20.3476L0.228293 20.3462L0.222439 20.3279L0.221707 20.3257L0.216585 20.3074L0.215854 20.3052L0.210732 20.2876L0.21 20.2854L0.204878 20.2679L0.204146 20.2657L0.199024 20.2474L0.198293 20.2452L0.193171 20.2269L0.192439 20.2254L0.187317 20.2071L0.186585 20.2064L0.181463 20.1881L0.180732 20.1866L0.176341 20.1691L0.17561 20.1676L0.17122 20.1501V20.1486L0.166098 20.1303V20.1281L0.161707 20.1105L0.160976 20.1083L0.156585 20.0908L0.155854 20.0886L0.151463 20.0703H0.152195L0.147805 20.052L0.147073 20.0505L0.142683 20.0323L0.141951 20.0308L0.137561 20.0125L0.136829 20.011L0.132439 19.9927L0.133171 19.992L0.12878 19.9737L0.128049 19.9715L0.123659 19.9532L0.122927 19.951L0.119268 19.9327L0.118537 19.9305L0.114146 19.9123L0.113415 19.9108L0.109756 19.8925L0.109024 19.8903L0.105366 19.872L0.104634 19.8698L0.100976 19.8515L0.0973171 19.8332V19.831L0.0936585 19.812V19.8098L0.09 19.7915L0.0892683 19.7893L0.0848781 19.7718V19.7696L0.0812195 19.7498L0.0804878 19.7476L0.0768293 19.7286L0.0760976 19.7264L0.0731708 19.7081L0.072439 19.7059L0.0695122 19.6876V19.6854L0.0665854 19.6671V19.6649L0.0636585 19.6466L0.0629268 19.6444L0.06 19.6262V19.6269L0.0570732 19.6086V19.6071L0.0541463 19.5888V19.5866L0.0512195 19.5683V19.5662L0.0482927 19.5479V19.5464L0.0460976 19.5274V19.5252L0.0439025 19.5069V19.5054L0.0409756 19.4864L0.0402439 19.4842L0.0380488 19.4659V19.4637L0.0358537 19.4447L0.035122 19.4425L0.0329268 19.4235V19.4213L0.0307317 19.4023L0.03 19.4001L0.0278049 19.381V19.3788L0.0256098 19.3598L0.024878 19.3583L0.0226829 19.3393L0.0212195 19.3203V19.3181L0.0190244 19.2991L0.0182927 19.2969L0.0160976 19.2779V19.2757L0.0146342 19.2566L0.0139024 19.2544L0.012439 19.2354V19.2332L0.0109756 19.2142V19.212L0.0095122 19.193L0.00804879 19.174V19.1718L0.00658538 19.1527V19.1505L0.00512195 19.1315V19.1079L0.00439024 19.0889V19.0867L0.00365853 19.0676V19.0654L0.00292683 19.0464L0.00219512 19.0442L0.00146341 19.0252V19.0047L0.000731707 18.9857V18.9835L0 18.9645V9.70105L0.000731707 9.68276V9.65935L0.00146341 9.64032V9.573L0.00219512 9.55398V9.55252L0.00292683 9.53349V9.5313L0.00365853 9.51227V9.51008L0.00439024 9.49105V9.48959L0.00512195 9.47056V9.46837L0.00585367 9.44935V9.44715L0.00731708 9.42739V9.4252L0.0087805 9.40617V9.40471L0.0095122 9.38569V9.38349L0.0109756 9.36447V9.36227L0.0117073 9.34325V9.34105L0.012439 9.32203V9.31983L0.0139024 9.30081V9.29861L0.0153659 9.27959V9.27739L0.017561 9.25837V9.25617L0.0190244 9.23715L0.0197561 9.23569L0.0212195 9.21666V9.2152L0.0234146 9.19617V9.19471L0.0256098 9.17569L0.0263415 9.17349L0.0285366 9.15447V9.15227L0.0307317 9.13325V9.13178L0.0329268 9.11276V9.1113L0.035122 9.09227L0.0358537 9.09008L0.0380488 9.07105V9.06886L0.0402439 9.05056V9.04837L0.042439 9.02934V9.02715L0.0446341 9.00813L0.0453659 9.00593L0.047561 8.98764V8.98544L0.0504878 8.96642V8.96422L0.0526829 8.9452L0.0534147 8.943L0.0556098 8.92471L0.0563415 8.92252L0.0592683 8.90349L0.06 8.90203L0.0629268 8.883V8.88154L0.0658537 8.86252V8.86105L0.0687805 8.84276L0.0695122 8.84056L0.072439 8.82227V8.82008L0.077561 8.80105L0.0782927 8.79886L0.0812195 8.78056V8.77837L0.0848781 8.76008V8.75861L0.0885366 8.74032V8.73886L0.0921951 8.71983L0.0929269 8.71837L0.0965854 8.70008L0.0973171 8.69861L0.100976 8.68032L0.101707 8.67812L0.105366 8.65983L0.106098 8.65764L0.109756 8.63934V8.63715L0.113415 8.61886V8.61739L0.117073 8.5991L0.117805 8.59764L0.121463 8.57934L0.122195 8.57788L0.126585 8.55959V8.55739L0.130976 8.5391L0.131707 8.53691L0.135366 8.51861L0.136098 8.51642L0.140488 8.49813V8.49593L0.144878 8.47764L0.14561 8.47544L0.15 8.45715V8.45495L0.15439 8.43666L0.155122 8.4352L0.159512 8.41691V8.41544L0.163902 8.39715L0.164634 8.39495L0.169756 8.37666V8.3752L0.174878 8.35691V8.35544L0.18 8.33715L0.180732 8.33495L0.185854 8.31666V8.31447L0.190976 8.29617L0.191707 8.29398L0.196829 8.27642L0.197561 8.27495L0.202683 8.25666L0.203415 8.25483L0.208537 8.23654L0.209268 8.23434L0.21439 8.21649L0.215122 8.21503L0.220976 8.19673L0.221707 8.19527L0.226829 8.17771L0.227561 8.17625L0.232683 8.15847L0.233415 8.157L0.238537 8.13886L0.239268 8.13666L0.245122 8.11881L0.245854 8.11661L0.251707 8.09905V8.09759L0.257561 8.08003V8.07783L0.263415 8.06027L0.264146 8.05881L0.27 8.04125L0.270732 8.03905L0.276585 8.02149L0.277317 8.0193L0.283171 8.00173L0.283902 7.99954L0.289756 7.98198L0.290488 7.98051L0.297073 7.96295L0.297805 7.96149L0.303659 7.94393L0.30439 7.9421L0.310244 7.92454L0.310976 7.92308L0.317561 7.90552L0.318293 7.90405L0.324878 7.88649V7.88503L0.331463 7.86747L0.332195 7.866L0.338781 7.84844L0.339512 7.84625L0.346098 7.82869L0.346829 7.82722L0.353415 7.80966L0.354146 7.80747L0.361463 7.79064L0.362195 7.78917L0.369512 7.77161L0.370244 7.77015L0.377561 7.75259L0.378293 7.75039L0.38561 7.73283L0.386341 7.73064L0.393659 7.71308L0.39439 7.71088L0.401707 7.69332L0.402439 7.69112L0.409756 7.67356L0.410488 7.67137L0.417805 7.65381L0.418537 7.65198L0.425854 7.63515L0.426585 7.63295L0.433902 7.61612L0.434634 7.61393L0.441951 7.59637L0.442683 7.59491L0.450732 7.57734L0.451463 7.57588L0.459512 7.55905L0.460244 7.55759L0.467561 7.54076L0.468293 7.53856L0.476342 7.52173L0.477073 7.52027L0.485122 7.50344L0.485854 7.50198L0.493902 7.48515L0.494634 7.48369L0.502683 7.46686L0.503415 7.46466L0.511463 7.44783L0.512195 7.44637L0.520244 7.42954L0.520976 7.42734L0.529024 7.41051L0.529756 7.40905L0.537805 7.39222L0.538537 7.39076L0.546585 7.37393L0.547317 7.37247L0.555366 7.35564L0.556098 7.35417L0.564878 7.33808L0.56561 7.33661L0.57439 7.31978L0.575854 7.31759L0.584634 7.30076L0.585366 7.2993L0.594146 7.28247L0.594878 7.28027L0.603659 7.26417L0.60439 7.26271L0.613171 7.24661L0.613902 7.24515L0.622683 7.22905L0.623415 7.22686L0.632195 7.21076L0.633659 7.2093L0.642439 7.1932L0.643171 7.191L0.651951 7.17491L0.653415 7.17344L0.662195 7.15734L0.662927 7.15588L0.671707 7.13978L0.673171 7.13759L0.682683 7.12149L0.683415 7.12003L0.692195 7.10393L0.692927 7.10247L0.702439 7.08637L0.703171 7.0849L0.712683 7.06881L0.713415 7.06734L0.722927 7.05125L0.72439 7.04978L0.733902 7.03369L0.734634 7.03222L0.744146 7.01612L0.74561 7.01466L0.755122 6.99856L0.755854 6.9971L0.765366 6.981L0.766829 6.97954L0.776341 6.96344L0.777073 6.96198L0.787317 6.94588L0.788781 6.94369L0.799024 6.92759L0.799756 6.92612L0.809268 6.91076L0.810732 6.90929L0.820976 6.89393L0.822439 6.89247L0.831951 6.87637L0.832683 6.87491L0.842927 6.85954L0.843659 6.85808L0.853902 6.84271L0.855366 6.84125L0.86561 6.82515L0.867073 6.82369L0.877317 6.80832L0.878049 6.80612L0.888293 6.79076L0.889024 6.78929L0.899268 6.77393L0.9 6.77247L0.910976 6.7571L0.912439 6.75564L0.922683 6.74027L0.924146 6.73881L0.935122 6.72344L0.935854 6.72198L0.946829 6.70661L0.947561 6.70515L0.958537 6.68978L0.959268 6.68832L0.970244 6.67295L0.971707 6.67149L0.982683 6.65612L0.983415 6.65466L0.99439 6.6393L0.995854 6.63783L1.00683 6.6232L1.00756 6.62173L1.01854 6.60637L1.02 6.6049L1.03098 6.59027L1.03244 6.58881L1.04341 6.57417L1.04488 6.57271L1.05585 6.55808L1.05732 6.55661L1.06829 6.54198L1.06902 6.54051L1.08 6.52588L1.08146 6.52442L1.09317 6.50978L1.09463 6.50832L1.10634 6.49368L1.1078 6.49222L1.11951 6.47759L1.12098 6.47612L1.13268 6.46149L1.13415 6.46003L1.14585 6.44539L1.14732 6.4432L1.15902 6.42856L1.15976 6.4271L1.17146 6.41247L1.17293 6.411L1.18463 6.39637L1.1861 6.3949L1.19781 6.381L1.19927 6.37954L1.21098 6.3649L1.21244 6.36344L1.22415 6.34881L1.22561 6.34734L1.23805 6.33344L1.23951 6.33198L1.25122 6.31734L1.25268 6.31588L1.26439 6.30198L1.26585 6.30051L1.27756 6.28588L1.27902 6.28442L1.29146 6.26978L1.2922 6.26832L1.30463 6.25442L1.3061 6.25295L1.31854 6.23905L1.32 6.23759L1.33244 6.22369L1.3339 6.22222L1.34634 6.20832L1.34707 6.20686L1.35951 6.19295L1.36098 6.19149L1.37341 6.17759L1.37488 6.17612L1.38732 6.16222L1.38805 6.16076L1.40049 6.14686L1.40195 6.14539L1.41512 6.13149L1.41585 6.13003L1.42902 6.11612L1.43049 6.11466L1.44439 6.10149L1.44585 6.10003L1.45902 6.08612L1.46049 6.08466L1.47366 6.07076L1.47512 6.06929L1.48829 6.05612L1.48976 6.05466L1.50293 6.04149L1.50439 6.04003L1.51756 6.02686L1.51902 6.02539L1.53293 6.01222L1.53439 6.01076L1.54756 5.99759L1.54902 5.99612L1.5622 5.98295L1.56366 5.98149L1.57683 5.96832L1.57829 5.96686L1.59146 5.95368L1.59293 5.95222L1.6061 5.93905L1.60756 5.93759L1.62073 5.92442L1.6222 5.92295L1.63537 5.90978L1.63683 5.90832L1.65073 5.89588L1.6522 5.89442L1.6661 5.88198L1.66756 5.88051L1.68146 5.86734L1.68293 5.86588L1.69683 5.85271L1.69829 5.85198L1.7122 5.83954L1.71366 5.83881L1.72756 5.82637L1.72902 5.8249L1.74293 5.81247L1.74439 5.811L1.75829 5.79856L1.75976 5.7971L1.77366 5.78466L1.77512 5.78393L1.78976 5.77149L1.79122 5.77003L1.80585 5.75759L1.80732 5.75612L1.82195 5.74368L1.82341 5.74222L1.83805 5.73051L1.83951 5.72905L1.85415 5.71734L1.85561 5.71588L1.86951 5.70417L1.87098 5.70271L1.88561 5.691L1.88707 5.68954L1.90171 5.67783L1.90317 5.6771L1.91781 5.66539L1.91927 5.66393L1.9339 5.65222L1.93537 5.65076L1.95 5.63905L1.95146 5.63759L1.96683 5.62588L1.96829 5.62442L1.98293 5.61271L1.98439 5.61125L1.99976 5.59954L2.00122 5.59807L2.01659 5.58637L2.01805 5.5849L2.03268 5.5732L2.03415 5.57247L2.04951 5.56076L2.05098 5.55929L2.06561 5.54759L2.06707 5.54612L2.08244 5.53515L2.0839 5.53368L2.09927 5.52198L2.10073 5.52051L2.1161 5.50954L2.11756 5.50881L2.13293 5.49783L2.13512 5.49637L2.15049 5.48539L2.15195 5.48466L2.16732 5.47368L2.16878 5.47222L2.18415 5.46051L2.18561 5.45978L2.20171 5.44881L2.20317 5.44734L2.21854 5.43637L2.22073 5.43564L2.2361 5.42466L2.23756 5.42393L2.25293 5.41295L2.25439 5.41222L2.27049 5.40125L2.27195 5.39978L2.28732 5.38881L2.28878 5.38808L2.30488 5.37783L2.30634 5.3771L2.32171 5.36612L2.3239 5.36466L2.34 5.35442L2.34146 5.35295L2.35756 5.34198L2.35902 5.34051L2.37512 5.33027L2.37732 5.32954L2.39341 5.31929L2.39488 5.31783L2.41098 5.30759L2.41244 5.30686L2.42854 5.29661L2.43 5.29588L2.4461 5.28564L2.44756 5.2849L2.46366 5.27466L2.46585 5.27393L2.48195 5.26442H2.48268L9.83707 0.72783L9.83781 0.727098L9.85317 0.717586L9.85463 0.716854L9.87073 0.70661L9.87293 0.705147L9.88902 0.695634L9.89122 0.694171L9.90732 0.684659L9.90951 0.683195L9.92561 0.673683L9.9278 0.672951L9.94464 0.663439L9.9461 0.661976L9.9622 0.652464L9.96439 0.651732L9.98049 0.64222L9.98195 0.641488L9.99878 0.632708L10.0002 0.631244L10.0171 0.622464L10.0185 0.621L10.0346 0.61222L10.0368 0.611488L10.0537 0.602708L10.0551 0.601244L10.0712 0.592464L10.0734 0.591L10.0895 0.58222L10.0917 0.580756L10.1078 0.571976L10.1093 0.570512L10.1261 0.561732L10.1276 0.561L10.1437 0.55222L10.1459 0.551488L10.162 0.542708L10.1641 0.541976L10.181 0.533195L10.1832 0.532464L10.2 0.523683L10.2015 0.522951L10.2183 0.514903L10.2205 0.514171L10.2373 0.506122L10.2395 0.50539L10.2556 0.497342L10.2578 0.49661L10.2746 0.488561L10.2761 0.48783L10.2929 0.479781L10.2951 0.479049L10.312 0.471L10.3141 0.469537L10.331 0.461488L10.3332 0.460756L10.35 0.452708L10.3522 0.451976L10.369 0.444659L10.3712 0.443927L10.388 0.43661L10.3895 0.435146L10.4063 0.42783L10.4078 0.427098L10.4246 0.419781L10.4268 0.418317L10.4437 0.411L10.4459 0.410269L10.4627 0.402951L10.4649 0.40222L10.4817 0.394903L10.4839 0.394171L10.5007 0.386854L10.5029 0.386122L10.5198 0.378805L10.522 0.378073L10.5388 0.371488L10.541 0.370756L10.5578 0.363439L10.56 0.362707L10.5776 0.35539L10.5798 0.354659L10.5973 0.347342L10.5995 0.345878L10.6163 0.339293L10.6178 0.338561L10.6354 0.331976L10.6376 0.331244L10.6544 0.324659L10.6559 0.323927L10.6734 0.317342L10.6756 0.31661L10.6932 0.310756L10.6954 0.310025L10.7129 0.303439L10.7151 0.302707L10.7327 0.296122L10.7349 0.29539L10.7524 0.289537L10.7546 0.288805L10.7722 0.282951L10.7744 0.28222L10.7912 0.276366L10.7934 0.275634L10.811 0.269781L10.8132 0.269049L10.83 0.263195L10.8322 0.262464L10.8498 0.25661L10.8512 0.255878L10.8688 0.250025L10.871 0.249293L10.8885 0.243439L10.8907 0.242707L10.9083 0.236854L10.9105 0.236122L10.928 0.231L10.9295 0.230268L10.9471 0.225146L10.9493 0.224415L10.9668 0.219293H10.969L10.9866 0.214171L10.9888 0.213439L11.0063 0.208317L11.0078 0.207586L11.0254 0.202464L11.0268 0.201732L11.0444 0.19661L11.0466 0.195878L11.0641 0.190756L11.0663 0.190025L11.0839 0.184902L11.0861 0.184171L11.1037 0.179781L11.1059 0.179049L11.1234 0.174659L11.1249 0.173927L11.1424 0.168805L11.1442 0.168073L11.1625 0.163683H11.164L11.1815 0.158561H11.1837L11.2018 0.154171L11.204 0.153439L11.2223 0.149049L11.2245 0.148317L11.242 0.143927H11.2442L11.2625 0.139537H11.2647L11.2823 0.135146L11.2845 0.134415L11.302 0.130756L11.3042 0.130024L11.3218 0.125634L11.324 0.124903L11.3415 0.121244H11.3437L11.3613 0.117585L11.3635 0.116854L11.381 0.113195H11.3825L11.4001 0.109537L11.4023 0.108805L11.4206 0.105146H11.422L11.4403 0.101488L11.4418 0.100756L11.4601 0.0970976L11.4623 0.0963659L11.4806 0.0927074L11.4828 0.0919756L11.501 0.0890488H11.5032L11.5208 0.086122L11.523 0.0853903L11.5413 0.0817318L11.5435 0.0810001L11.5618 0.0780732H11.564L11.5815 0.0751464L11.5837 0.0744147L11.602 0.0714878L11.6042 0.0707561L11.6218 0.0678293H11.6232L11.6408 0.0649025H11.643L11.6613 0.0619756L11.6635 0.0612439L11.6818 0.0583171H11.684L11.7023 0.0553903H11.7045L11.7228 0.0524634H11.725L11.7432 0.0502683H11.7454L11.763 0.0480732H11.7652L11.7835 0.0458781L11.7857 0.0451464L11.804 0.0429512L11.8054 0.0422196L11.8237 0.0407561H11.8259L11.8435 0.038561H11.8457L11.8632 0.0363659H11.8654L11.8837 0.0341707H11.8859L11.9042 0.0319756H11.9064L11.924 0.0305123H11.9262L11.9445 0.0283171L11.9467 0.0275854L11.965 0.026122L11.9671 0.0253903L11.9854 0.0239269H11.9876L12.0056 0.0224634H12.0078L12.0261 0.0210001H12.0283L12.0466 0.0202683L12.0488 0.0195366L12.0671 0.0180732L12.0686 0.0173415L12.0869 0.0166098H12.089L12.1073 0.0151464H12.1088L12.1271 0.0144147H12.1293L12.1476 0.013683H12.1498L12.1681 0.0129512H12.1703L12.1886 0.0122196L12.1908 0.0114878L12.209 0.0107561H12.2112L12.2295 0.0100244H12.2317L12.25 0.00929275H12.2522L12.2705 0.00856102H12.2727L12.291 0.0078293H12.2925L12.3108 0.00709757H12.3334L12.3517 0.00636585H12.3942L12.398 0ZM12.3812 1.97561H12.3692L12.3572 1.97576H12.3453L12.3329 1.97605L12.3204 1.97634L12.308 1.97671L12.2955 1.97744L12.2831 1.97817L12.2707 1.9789L12.259 1.97963L12.2465 1.98037L12.2348 1.9811L12.2231 1.98183L12.2114 1.98256L12.199 1.98329L12.1872 1.98403L12.1748 1.98549L12.1624 1.98695L12.1507 1.98842L12.1382 1.98988L12.1258 1.99134L12.1133 1.99281L12.1016 1.99427L12.0892 1.99573L12.0775 1.9972L12.0658 1.99866L12.0533 2.00012L12.0416 2.00159L12.0299 2.00305L12.0182 2.00451L12.0065 2.00598L11.9941 2.00744L11.9824 2.00963L11.9707 2.0111L11.9582 2.01329L11.9465 2.01549L11.9348 2.01768L11.9231 2.01988L11.9114 2.02207L11.8997 2.02427L11.888 2.02646L11.8763 2.02793L11.8638 2.03012L11.8521 2.03232L11.8397 2.03451L11.828 2.03671L11.8163 2.0389L11.8046 2.0411L11.7929 2.04403L11.7811 2.04695L11.7694 2.04988L11.7577 2.05207L11.746 2.05427L11.7343 2.0572L11.7226 2.06012L11.7109 2.06305L11.6992 2.06598L11.6875 2.0689L11.6758 2.07183L11.6641 2.07476L11.6524 2.07768L11.6407 2.08061L11.629 2.08354L11.6172 2.0872L11.6055 2.09012L11.5938 2.09378L11.5829 2.09744L11.5711 2.1011L11.5594 2.10476L11.5477 2.10842L11.536 2.11207L11.5243 2.11573L11.5133 2.11939L11.5016 2.12305L11.4899 2.12744L11.4782 2.1311L11.4665 2.13476L11.4548 2.13915L11.4431 2.14281L11.4314 2.14646L11.4204 2.15012L11.4087 2.15451L11.397 2.1589L11.3853 2.16329L11.3743 2.16768L11.3626 2.17207L11.3516 2.17646L11.3407 2.18085L11.329 2.18598L11.3172 2.19037L11.3055 2.19476L11.2938 2.19915L11.2829 2.20427L11.2719 2.20866L11.2602 2.21378L11.2492 2.2189L11.2382 2.22403L11.2272 2.22915L11.2155 2.23427L11.2046 2.23939L11.1929 2.24451L11.1819 2.24964L11.1709 2.25476L11.1599 2.25988L11.1482 2.265L11.1372 2.27012L11.1263 2.27524L11.1153 2.2811L11.1043 2.28695L11.0933 2.29207L11.0824 2.29793L11.0714 2.30305L11.0604 2.3089L11.0494 2.31476L11.0385 2.32061L11.0275 2.32646L11.0165 2.33232L11.0055 2.3389L10.9953 2.34476L10.9843 2.35061L10.9741 2.35646L10.9631 2.36305L10.9521 2.36964L10.9411 2.37622L10.9309 2.38207L10.9199 2.38866L10.9097 2.39524L10.8987 2.40183L10.8877 2.40842L10.876 2.41573L3.52968 6.94354L3.51724 6.95159L3.50554 6.9589L3.49456 6.96622L3.48359 6.97354L3.47261 6.98086L3.46163 6.98817L3.45066 6.99549L3.43968 7.00281L3.42871 7.01012L3.41773 7.01744L3.40676 7.02476L3.39578 7.03208L3.38481 7.04012L3.37456 7.04744L3.36432 7.05476L3.35334 7.06208L3.3431 7.06939L3.33285 7.07671L3.32261 7.08403L3.31237 7.09134L3.30212 7.09866L3.29188 7.10598L3.28163 7.11403L3.27139 7.12134L3.26115 7.12939L3.2509 7.13744L3.24066 7.14549L3.23041 7.15354L3.22017 7.16159L3.20993 7.16964L3.20042 7.17769L3.19017 7.18573L3.17993 7.19378L3.17042 7.20183L3.16017 7.20988L3.14993 7.21793L3.14042 7.22598L3.13017 7.23403L3.12066 7.24208L3.11115 7.25012L3.10163 7.2589L3.09212 7.26769L3.08261 7.27573L3.0731 7.28378L3.06359 7.29256L3.05407 7.30134L3.04456 7.31012L3.03505 7.3189L3.02554 7.32769L3.01602 7.33647L3.00651 7.34525L2.997 7.35403L2.98749 7.36281L2.97798 7.37159L2.96846 7.38037L2.95968 7.38915L2.95017 7.39793L2.94139 7.40744L2.93188 7.41622L2.9231 7.42573L2.91432 7.43451L2.90554 7.44403L2.89676 7.45281L2.88798 7.46232L2.8792 7.47183L2.86968 7.48134L2.8609 7.49012L2.85212 7.49964L2.84334 7.50915L2.83456 7.51866L2.82651 7.52817L2.81773 7.53769L2.80895 7.5472L2.80017 7.55671L2.79139 7.56695L2.78261 7.57647L2.77456 7.58598L2.76651 7.59549L2.75773 7.60573L2.74968 7.61525L2.7409 7.62476L2.73285 7.635L2.72481 7.64451L2.71676 7.65476L2.70871 7.665L2.70066 7.67525L2.69261 7.68549L2.68456 7.69573L2.67651 7.70598L2.6692 7.71622L2.66115 7.72647L2.6531 7.73671L2.64505 7.74695L2.637 7.7572L2.62968 7.76744L2.62237 7.77769L2.61505 7.78793L2.60773 7.79891L2.60041 7.80915L2.5931 7.81939L2.58578 7.83037L2.57846 7.84061L2.57115 7.85086L2.56383 7.8611L2.55651 7.87134L2.54993 7.88232L2.54261 7.8933L2.53529 7.90354L2.52798 7.91452L2.52139 7.92549L2.51481 7.93573L2.50822 7.94671L2.50163 7.95769L2.49505 7.96866L2.48846 7.97964L2.48115 7.99061L2.47383 8.00159L2.46724 8.01256L2.46066 8.02354L2.45407 8.03452L2.44749 8.04549L2.4409 8.05647L2.43432 8.06744L2.42773 8.07842L2.42115 8.08939L2.41456 8.10037L2.40798 8.11134L2.40139 8.12305L2.39481 8.13403L2.38822 8.145L2.38163 8.15671L2.37578 8.16769L2.36993 8.17939L2.36407 8.1911L2.35822 8.20281L2.35237 8.21378L2.34651 8.22476L2.34066 8.23647L2.33481 8.24744L2.32895 8.25915L2.32383 8.27012L2.31798 8.28183L2.31212 8.29354L2.30627 8.30525L2.30041 8.31695L2.29456 8.32866L2.28944 8.34037L2.28432 8.35208L2.2792 8.36378L2.27407 8.37549L2.26895 8.3872L2.26383 8.39891L2.25871 8.41061L2.25359 8.42232L2.24846 8.43403L2.24407 8.44573L2.23895 8.45744L2.23383 8.46988L2.22871 8.48159L2.22359 8.4933L2.21846 8.505L2.21407 8.51671L2.20895 8.52915L2.20383 8.54086L2.19944 8.55256L2.19505 8.565L2.19066 8.57671L2.18627 8.58915L2.18188 8.60086L2.17749 8.6133L2.1731 8.62574L2.16871 8.63817L2.16505 8.65061L2.16066 8.66232L2.15627 8.67476L2.15261 8.6872L2.14895 8.69891L2.14529 8.71134L2.1409 8.72378L2.13724 8.73549L2.13359 8.7472L2.12993 8.75964L2.12554 8.77208L2.12188 8.78452L2.11822 8.79622L2.11456 8.80866L2.1109 8.8211L2.10724 8.83354L2.10359 8.84598L2.09993 8.85842L2.097 8.87086L2.09407 8.8833L2.09041 8.89574L2.08749 8.90817L2.08383 8.92061L2.0809 8.93305L2.07798 8.94549L2.07505 8.95866L2.07212 8.9711L2.0692 8.98354L2.06627 8.99598L2.06334 9.00842L2.06041 9.02086L2.05749 9.0333L2.05529 9.04573L2.05237 9.05817L2.05017 9.07061L2.04798 9.08378L2.04578 9.09695L2.04359 9.11013L2.04139 9.1233L2.0392 9.13574L2.037 9.14817L2.03481 9.16134L2.03261 9.17452L2.03041 9.18695L2.02822 9.19939L2.02602 9.21183L2.02383 9.225L2.02237 9.23817L2.0209 9.25134L2.01944 9.26378L2.01724 9.27695L2.01505 9.28939L2.01359 9.30256L2.01212 9.31573L2.01066 9.32891L2.0092 9.34208L2.00773 9.35525L2.00627 9.36842L2.00481 9.38086L2.00334 9.39403L2.00188 9.4072L2.00115 9.42037L1.99968 9.43354L1.99822 9.44671L1.99749 9.45988L1.99676 9.47305L1.99602 9.48622L1.99529 9.49939L1.99456 9.51256L1.99383 9.52574L1.9931 9.53891L1.99237 9.55208L1.99163 9.56525L1.9909 9.57842V9.59159L1.99017 9.60476L1.98944 9.61793V9.6311L1.98871 9.64427V18.9223L1.98944 18.9355V18.975L1.99017 18.9874L1.9909 19.0006L1.99163 19.0138L1.99237 19.027L1.9931 19.0401L1.99383 19.0533L1.99456 19.0665L1.99529 19.0796L1.99602 19.0928L1.99749 19.106L1.99822 19.1192L1.99895 19.1323L1.99968 19.1455L2.00115 19.1579L2.00261 19.1711L2.00407 19.1835L2.00481 19.1967L2.00627 19.2092L2.00773 19.2216L2.0092 19.234L2.01066 19.2465L2.01212 19.2596L2.01359 19.2721L2.01505 19.2845L2.01651 19.2977L2.01798 19.3109L2.01944 19.3233L2.0209 19.3365L2.0231 19.3489L2.02529 19.3613L2.02749 19.3738L2.02968 19.3862L2.03188 19.3994L2.03407 19.4118L2.03627 19.4243L2.03846 19.4367L2.04066 19.4492L2.04359 19.4616L2.04578 19.474L2.04798 19.4865L2.05017 19.4989L2.0531 19.5113L2.05602 19.5238L2.05822 19.5362L2.06115 19.5487L2.06407 19.5611L2.067 19.5735L2.06993 19.586L2.07285 19.5984L2.07578 19.6109L2.07871 19.6233L2.08163 19.635L2.08529 19.6467L2.08822 19.6592L2.09115 19.6716L2.09407 19.684L2.09773 19.6965L2.10066 19.7082L2.10359 19.7206L2.10651 19.7323L2.11017 19.7448L2.1131 19.7565L2.11676 19.7689L2.12041 19.7813L2.12407 19.7931L2.12773 19.8055L2.13139 19.8179L2.13505 19.8296L2.13871 19.8421L2.1431 19.8538L2.14749 19.8655L2.15188 19.8772L2.15627 19.8889L2.15993 19.9006L2.16432 19.9131L2.16871 19.9248L2.1731 19.9365L2.17749 19.9482L2.18188 19.9599L2.18627 19.9716L2.19066 19.9833L2.19505 19.995L2.19944 20.0067L2.20383 20.0184L2.20895 20.0301L2.21407 20.0418L2.21846 20.0535L2.22285 20.0653L2.22724 20.077L2.23163 20.0887L2.23602 20.1004L2.24115 20.1121L2.24627 20.1238L2.25139 20.1355L2.25651 20.1472L2.26163 20.1589L2.26676 20.1706L2.27188 20.1823L2.277 20.194L2.28212 20.2057L2.28724 20.2174L2.29237 20.2292L2.29749 20.2401L2.30334 20.2518L2.3092 20.2628L2.31505 20.2745L2.3209 20.2855L2.32676 20.2965L2.33261 20.3074L2.33846 20.3184L2.34432 20.3294L2.35017 20.3404L2.35676 20.3513L2.36261 20.3623L2.36846 20.3733L2.37432 20.3843L2.3809 20.3953L2.38749 20.4062L2.39334 20.4172L2.3992 20.4282L2.40505 20.4392L2.41163 20.4501L2.41749 20.4611L2.42407 20.4713L2.43066 20.4823L2.43724 20.4926L2.44383 20.5035L2.45041 20.5145L2.457 20.5248L2.46359 20.535L2.47017 20.5453L2.47676 20.5555L2.48334 20.5665L2.48993 20.5774L2.49724 20.5877L2.50383 20.5979L2.51041 20.6089L2.517 20.6192L2.52359 20.6294L2.5309 20.6396L2.53822 20.6499L2.54554 20.6609L2.55285 20.6711L2.56017 20.6814L2.56749 20.6916L2.5748 20.7018L2.58212 20.7121L2.58944 20.7223L2.59676 20.7326L2.6048 20.7428L2.61285 20.7531L2.62017 20.7633L2.62749 20.7735L2.6348 20.7838L2.64212 20.794L2.65017 20.8035L2.65822 20.8131L2.66627 20.8233L2.67432 20.8328L2.68237 20.8431L2.69041 20.8526L2.69846 20.8621L2.70651 20.8716L2.71456 20.8811L2.72261 20.8906L2.73066 20.9001L2.73871 20.9096L2.74676 20.9192L2.75481 20.9287L2.76285 20.9382L2.7709 20.9477L2.77968 20.9572L2.78846 20.9667L2.79651 20.9762L2.80529 20.985L2.81407 20.9945L2.82285 21.0033L2.83163 21.0128L2.83968 21.0223L2.84846 21.0318L2.85724 21.0406L2.86602 21.0494L2.87481 21.0582L2.88359 21.067L2.89237 21.0765L2.90115 21.0853L2.90993 21.094L2.91871 21.1028L2.92749 21.1116L2.93627 21.1204L2.94578 21.1292L2.95456 21.1379L2.96334 21.1467L2.97285 21.1555L2.98163 21.1643L2.99041 21.1731L2.99993 21.1818L3.00944 21.1899L3.01895 21.1979L3.02846 21.2067L3.03798 21.2155L3.04749 21.2235L3.057 21.2316L3.06651 21.2404L3.07602 21.2492L3.08554 21.2572L3.09578 21.2653L3.10602 21.2733L3.11627 21.2813L3.12578 21.2894L3.13529 21.2974L3.14554 21.3055L3.15505 21.3135L3.16529 21.3209L3.17481 21.3289L3.18505 21.337L3.19529 21.345L3.20554 21.3531L3.21505 21.3604L3.22529 21.3684L3.23554 21.3757L3.24578 21.3838L3.25602 21.3918L3.26627 21.3992L3.27651 21.4065L3.28749 21.4138L3.29773 21.4211L3.30798 21.4284L3.31822 21.4357L3.32846 21.4431L3.33871 21.4504L3.34895 21.4577L3.35993 21.465L3.3709 21.4716L3.38188 21.4789L3.39212 21.4862L3.4031 21.4935L3.41407 21.5009L3.42432 21.5074L3.43529 21.514L3.44627 21.5206L3.45724 21.5272L3.46822 21.5338L3.4792 21.5404L3.4909 21.547L3.50188 21.5535L3.51285 21.5601L3.52529 21.5674L11.1848 26.0455L11.1943 26.0514L11.2024 26.0557L11.2111 26.0601L11.2199 26.0645L11.2287 26.0689L11.2368 26.074L11.2455 26.0784L11.2543 26.0828L11.2631 26.0872L11.2719 26.0923L11.2807 26.0967L11.2894 26.1011L11.2982 26.1055L11.307 26.1099L11.3158 26.1143L11.3246 26.1187L11.3333 26.1231L11.3421 26.1274L11.3502 26.1318L11.359 26.1362L11.3677 26.1406L11.3765 26.1443L11.3853 26.1487L11.3941 26.1523L11.4029 26.156L11.4116 26.1596L11.4204 26.164L11.4292 26.1684L11.438 26.1721L11.4468 26.1765L11.4555 26.1801L11.4643 26.1838L11.4731 26.1875L11.4819 26.1911L11.4907 26.1948L11.4994 26.1984L11.5082 26.2021L11.517 26.2057L11.5258 26.2094L11.5346 26.2123L11.5441 26.216L11.5529 26.2196L11.5616 26.2233L11.5704 26.227L11.5792 26.2306L11.588 26.2335L11.5968 26.2372L11.6055 26.2401L11.6143 26.2431L11.6238 26.246L11.6326 26.2489L11.6407 26.2518L11.6597 26.2577L11.678 26.2635L11.6963 26.2687L11.7146 26.2738L11.7329 26.2789L11.7511 26.284L11.7694 26.2892L11.7877 26.2943L11.806 26.2994L11.8243 26.3038L11.8426 26.3082L11.8609 26.3126L11.8792 26.3162L11.8975 26.3206L11.9158 26.3243L11.9341 26.3279L11.9524 26.3316L11.9707 26.3345L11.989 26.3382L12.0072 26.3411L12.0255 26.344L12.0446 26.347L12.0629 26.3499L12.0819 26.3521L12.1009 26.3543L12.1199 26.3565L12.139 26.3579L12.1572 26.3594L12.1763 26.3609L12.1946 26.3623L12.2136 26.3638L12.2326 26.3653L12.2509 26.3667L12.2692 26.3674L12.2875 26.3682L12.3065 26.3689H12.4002L12.4192 26.3682H12.4382L12.4572 26.3674L12.4763 26.3667L12.4953 26.3653L12.5143 26.3638L12.5333 26.3631L12.5524 26.3616L12.5714 26.3601L12.5904 26.3587L12.6087 26.3572L12.6277 26.355L12.6468 26.3528L12.665 26.3506L12.6841 26.3484L12.7024 26.3455L12.7214 26.3426L12.7397 26.3396L12.7587 26.3367L12.777 26.3338L12.7953 26.3301L12.8136 26.3272L12.8326 26.3235L12.8509 26.3199L12.8692 26.3155L12.8875 26.3118L12.9058 26.3074L12.9241 26.3031L12.9424 26.2987L12.9607 26.2943L12.979 26.2892L12.9972 26.284L13.0155 26.2789L13.0338 26.2738L13.0529 26.2679L13.0616 26.265L13.0704 26.2621L13.0792 26.2592L13.0887 26.2562L13.0975 26.2533L13.107 26.2504L13.1158 26.2474L13.1246 26.2445L13.1341 26.2416L13.1429 26.2387L13.1516 26.2357L13.1611 26.2321L13.1699 26.2292L13.1794 26.2262L13.1882 26.2226L13.197 26.2196L13.2058 26.2167L13.2146 26.2138L13.2241 26.2101L13.2329 26.2072L13.2416 26.2035L13.2504 26.1999L13.2592 26.1962L13.268 26.1926L13.2768 26.1889L13.2855 26.1853L13.2943 26.1816L13.3031 26.1779L13.3119 26.1743L13.3207 26.1706L13.3294 26.1662L13.3382 26.1618L13.347 26.1582L13.3558 26.1538L13.3646 26.1494L13.3733 26.1457L13.3821 26.1414L13.3909 26.137L13.3997 26.1326L13.4077 26.1282L13.4165 26.1238L13.4253 26.1194L13.4341 26.115L13.4429 26.1106L13.4516 26.1062L13.4604 26.1018L13.4692 26.0974L13.478 26.0931L13.486 26.0887L13.4948 26.0843L13.5036 26.0799L13.5131 26.0748L21.9987 21.3457L22.009 21.3406L22.0185 21.3355L22.0272 21.3304L22.036 21.3253L22.0448 21.3201L22.0536 21.3143L22.0631 21.3092L22.0719 21.304L22.0807 21.2989L22.0894 21.2938L22.0982 21.2879L22.107 21.2821L22.1158 21.277L22.1246 21.2718L22.1333 21.2667L22.1421 21.2609L22.1509 21.255L22.1597 21.2499L22.1685 21.244L22.1772 21.2389L22.1853 21.2331L22.1933 21.2272L22.2014 21.2213L22.2094 21.2155L22.2175 21.2096L22.2263 21.2038L22.2343 21.1979L22.2431 21.1921L22.2511 21.1862L22.2592 21.1804L22.2672 21.1745L22.2753 21.1687L22.2833 21.1628L22.2921 21.157L22.3002 21.1504L22.3082 21.1445L22.3163 21.1379L22.3243 21.1321L22.3324 21.1255L22.3404 21.1189L22.3485 21.1123L22.3565 21.1065L22.3646 21.1006L22.3726 21.094L22.3799 21.0874L22.388 21.0809L22.396 21.0743L22.4033 21.0684L22.4114 21.0618L22.4194 21.0545L22.4268 21.0479L22.4348 21.0413L22.4421 21.0348L22.4494 21.0282L22.4568 21.0209L22.4648 21.0143L22.4721 21.007L22.4794 21.0004L22.4868 20.9931L22.4941 20.9857L22.5014 20.9792L22.5087 20.9718L22.516 20.9653L22.5233 20.9579L22.5307 20.9506L22.538 20.9433L22.5453 20.936L22.5519 20.9287L22.5592 20.9214L22.5658 20.914L22.5731 20.9067L22.5804 20.8994L22.5877 20.8921L22.5943 20.8848L22.6009 20.8774L22.6075 20.8701L22.6141 20.8628L22.6214 20.8555L22.628 20.8482L22.6346 20.8409L22.6411 20.8335L22.6477 20.8262L22.6543 20.8189L22.6609 20.8116L22.6675 20.8043L22.6741 20.7962L22.6807 20.7882L22.6872 20.7801L22.6938 20.7728L22.7004 20.7655L22.707 20.7582L22.7136 20.7501L22.7202 20.7428L22.7268 20.7348L22.7326 20.7274L22.7385 20.7194L22.7443 20.7113L22.7502 20.704L22.7568 20.696L22.7626 20.6879L22.7685 20.6799L22.7743 20.6718L22.7802 20.6638L22.786 20.6557L22.7919 20.6477L22.7977 20.6396L22.8036 20.6316L22.8094 20.6235L22.8153 20.6155L22.8211 20.6074L22.827 20.5994L22.8321 20.5913L22.8372 20.5826L22.8431 20.5738L22.849 20.5657L22.8541 20.5577L22.8592 20.5496L22.8651 20.5409L22.8709 20.5328L22.876 20.5248L22.8811 20.516L22.8863 20.5072L22.8914 20.4984L22.8965 20.4896L22.9016 20.4816L22.9068 20.4728L22.9119 20.464L22.917 20.456L22.9221 20.4472L22.9272 20.4384L22.9324 20.4296L22.9368 20.4209L22.9411 20.4121L22.9463 20.4033L22.9514 20.3945L22.9558 20.3857L22.9609 20.377L22.966 20.3682L22.9704 20.3594L22.9748 20.3506L22.9792 20.3411L22.9836 20.3323L22.9887 20.3235L22.9938 20.3148L22.9982 20.306L23.0026 20.2972L23.007 20.2884L23.0114 20.2789L23.0158 20.2701L23.0202 20.2613L23.0246 20.2518L23.029 20.2431L23.0333 20.2343L23.0377 20.2248L23.0421 20.2153L23.0465 20.2057L23.0509 20.197L23.0546 20.1882L23.0582 20.1787L23.0619 20.1692L23.0655 20.1596L23.0692 20.1509L23.0729 20.1413L23.0765 20.1318L23.0802 20.1223L23.0838 20.1135L23.0875 20.104L23.0911 20.0945L23.0948 20.085L23.0985 20.0755L23.1021 20.066L23.1051 20.0565L23.108 20.047L23.1109 20.0374L23.1138 20.0279L23.1175 20.0184L23.1211 20.0089L23.1248 19.9994L23.1285 19.9899L23.1314 19.9804L23.1351 19.9709L23.138 19.9613L23.1409 19.9518L23.1446 19.9423L23.1475 19.9328L23.1504 19.9233L23.1533 19.9138L23.1563 19.9043L23.1585 19.8948L23.1614 19.8853L23.1643 19.8757L23.1672 19.8662L23.1702 19.8567L23.1724 19.8472L23.1746 19.837L23.1775 19.8274L23.1797 19.8179L23.1819 19.8077L23.1848 19.7982L23.187 19.7887L23.1892 19.7792L23.1914 19.7696L23.1936 19.7594L23.1958 19.7499L23.198 19.7404L23.1994 19.7301L23.2016 19.7199L23.2038 19.7104L23.2053 19.7001L23.2075 19.6906L23.2097 19.6804L23.2119 19.6701L23.2141 19.6606L23.2163 19.6504L23.2177 19.6401L23.2199 19.6299L23.2214 19.6204L23.2236 19.6109L23.2251 19.6006L23.2265 19.5904L23.228 19.5801L23.2294 19.5699L23.2309 19.5596L23.2324 19.5494L23.2338 19.5392L23.2346 19.5289L23.236 19.5194L23.2368 19.5092L23.2382 19.4989L23.2397 19.4894L23.2411 19.4792L23.2419 19.4689L23.2426 19.4587L23.2433 19.4484L23.2441 19.4382L23.2455 19.4279L23.2463 19.4177L23.247 19.4074L23.2477 19.3972L23.2485 19.387L23.2492 19.3767L23.2499 19.3665L23.2507 19.3562L23.2514 19.346L23.2521 19.3357L23.2529 19.3255L23.2536 19.3153V19.2948L23.2543 19.2845V9.15542L23.2536 9.14642L23.2529 9.13691V9.12739L23.2521 9.11788V9.10837L23.2514 9.09886V9.08934L23.2507 9.07983L23.2499 9.07105L23.2492 9.06154L23.2485 9.05203L23.2477 9.04252L23.247 9.03373L23.2463 9.02422L23.2455 9.01544L23.2448 9.00593L23.2433 8.99642L23.2426 8.98764L23.2419 8.97886L23.2404 8.97008L23.2397 8.9613L23.2382 8.95178L23.2375 8.943L23.236 8.93422L23.2346 8.92471L23.2338 8.9152L23.2331 8.90642L23.2316 8.89837L23.2287 8.87913L23.2265 8.86047L23.2236 8.84144L23.2207 8.82315L23.217 8.80486L23.2133 8.78656L23.2104 8.76827L23.2068 8.74998L23.2024 8.73169L23.198 8.71339L23.1936 8.6951L23.1892 8.67681L23.1848 8.65852L23.1804 8.64022L23.176 8.62193L23.1709 8.60364L23.1658 8.58534L23.1607 8.56705L23.1548 8.54876L23.1497 8.5312L23.1438 8.51364L23.138 8.49608L23.1321 8.47851L23.1263 8.46095L23.1197 8.44339L23.1131 8.42583L23.1065 8.409L23.0999 8.39144L23.0933 8.37388L23.0868 8.35632L23.0794 8.33949L23.0729 8.32193L23.0655 8.3051L23.0582 8.28827L23.0509 8.27144L23.0429 8.25461L23.0355 8.23778L23.0275 8.22095L23.0194 8.20413L23.0114 8.18803L23.0026 8.1712L22.9946 8.15437L22.9858 8.13754L22.977 8.12144L22.9682 8.10534L22.9594 8.08925L22.9507 8.07315L22.9419 8.05705L22.9324 8.04095L22.9229 8.02486L22.9133 8.00876L22.9031 7.99266L22.8936 7.9773L22.8841 7.96193L22.8738 7.94656L22.8636 7.9312L22.8533 7.91583L22.8431 7.90047L22.8329 7.8851L22.8226 7.86973L22.8116 7.8551L22.8007 7.84047L22.7897 7.82583L22.7787 7.8112L22.7677 7.79656L22.756 7.78193L22.7443 7.7673L22.7326 7.75266L22.7209 7.73803L22.7092 7.72412L22.6968 7.71022L22.6851 7.69632L22.6726 7.68242L22.6602 7.66851L22.6477 7.65461L22.6353 7.64071L22.6229 7.62681L22.6097 7.61364L22.5965 7.60047L22.5833 7.5873L22.5702 7.57412L22.557 7.56095L22.5431 7.54778L22.5292 7.53461L22.5153 7.52217L22.5014 7.50973L22.4875 7.4973L22.4736 7.48486L22.4597 7.47242L22.4451 7.45998L22.4304 7.44827L22.4158 7.43656L22.4019 7.42486L22.3865 7.41242L22.3799 7.40729L22.3726 7.40144L22.3653 7.39559L22.358 7.38973L22.3507 7.38388L22.3433 7.37876L22.336 7.37291L22.3287 7.36705L22.3207 7.3612L22.3126 7.35534L22.3053 7.34949L22.298 7.34364L22.2907 7.33778L22.2833 7.33266L22.276 7.32681L22.268 7.32095L22.2607 7.31583L22.2533 7.31071L22.2453 7.30486L22.2372 7.29973L22.2292 7.29461L22.2219 7.28949L22.2138 7.28437L22.2058 7.27925L22.1977 7.27412L22.1897 7.269L22.1816 7.26388L22.1736 7.25876L22.1655 7.25364L22.1575 7.24851L22.1494 7.24339L22.1414 7.239L22.1333 7.23461L22.1238 7.22949L13.8439 2.37176L13.8322 2.36459L13.8216 2.35873L13.8106 2.35215L13.7996 2.34556L13.7889 2.33949L13.7779 2.33364L13.7673 2.32778L13.7563 2.32193L13.7453 2.31607L13.7344 2.31022L13.7236 2.30437L13.7126 2.29851L13.7017 2.29266L13.6907 2.28681L13.6797 2.28095L13.6687 2.2751L13.6578 2.26924L13.6466 2.26412L13.6356 2.25827L13.6246 2.25315L13.6136 2.24803L13.6027 2.24217L13.5913 2.23705L13.5803 2.23193L13.5694 2.22681L13.558 2.22168L13.547 2.21656L13.536 2.21217L13.5247 2.20705L13.5135 2.20193L13.5026 2.19681L13.4912 2.19242L13.4802 2.18803L13.4685 2.18364L13.4573 2.17851L13.4457 2.17412L13.434 2.169L13.4223 2.16461L13.411 2.16022L13.3996 2.15583L13.3881 2.15144L13.3764 2.14705L13.3647 2.14266L13.3537 2.13827L13.3428 2.13461L13.3318 2.13095L13.3201 2.12656L13.3084 2.1229L13.2974 2.11924L13.2857 2.11559L13.274 2.11193L13.263 2.10827L13.2513 2.10461L13.2396 2.10095L13.2279 2.09729L13.2169 2.09364L13.2052 2.08998L13.1935 2.08632L13.1818 2.08266L13.1701 2.07973L13.1584 2.07607L13.1467 2.07315L13.135 2.06949L13.1232 2.06656L13.1115 2.06364L13.0998 2.06071L13.0881 2.05705L13.0764 2.05412L13.0647 2.0512L13.053 2.049L13.0413 2.04607L13.0296 2.04315L13.0179 2.04022L13.0062 2.03803L12.9945 2.0351L12.9828 2.0329L12.971 2.03071L12.9593 2.02778L12.9476 2.02559L12.9359 2.02339L12.9242 2.0212L12.9125 2.019L12.9008 2.01681L12.8891 2.01461L12.8767 2.01242L12.865 2.01095L12.8532 2.00949L12.8415 2.00803L12.8298 2.00656L12.8181 2.00437L12.8064 2.00217L12.7947 2.00071L12.7823 1.99851L12.7706 1.99705L12.7589 1.99485L12.7471 1.99339L12.7354 1.99193L12.7237 1.99046L12.712 1.989L12.7003 1.98754L12.6879 1.98607L12.6762 1.98534L12.6645 1.98388L12.6528 1.98242L12.641 1.98168L12.6293 1.98095L12.6176 1.98022L12.6059 1.97949L12.5942 1.97876L12.5818 1.97803L12.5693 1.97729L12.5576 1.97656L12.5459 1.97583H12.5342L12.5225 1.9751L12.5108 1.97437H12.4984L12.4867 1.97363L12.475 1.9729L12.464 1.97217L12.4523 1.97144H12.4281L12.4164 1.97071H12.393L12.3812 1.97561Z" fill="#C9177E"/>
<path d="M6.81293 21.6761V6.51366H9.98517V12.0366H15.2473V6.51366H18.4288V21.6761H15.2473V15.0464H9.98517V21.6761H6.81293Z" fill="white"/>
</svg>
