<svg width="100" height="100" viewBox="0 0 100 100" fill="none" xmlns="http://www.w3.org/2000/svg" class="icon">
<path d="M26.102 78.092C24.439 78.092 22.853 77.9745 21.344 77.7394C19.0311 77.3791 16.8991 76.7426 14.948 75.83C11.724 74.322 9.202 72.164 7.382 69.356C5.562 66.548 4.652 63.168 4.652 59.216V57.032H14.792V59.216C14.792 62.492 15.806 64.962 17.834 66.626C19.862 68.238 22.618 69.044 26.102 69.044C29.638 69.044 32.264 68.342 33.98 66.938C35.748 65.534 36.632 63.74 36.632 61.556C36.632 60.048 36.216 58.826 35.384 57.89C34.552 56.954 33.33 56.2 31.718 55.628C30.106 55.004 28.13 54.432 25.79 53.912L23.996 53.522C20.252 52.69 17.028 51.65 14.324 50.402C11.672 49.102 9.618 47.412 8.162 45.332C6.758 43.252 6.056 40.548 6.056 37.22C6.056 33.892 6.836 31.058 8.396 28.718C10.008 26.326 12.244 24.506 15.104 23.258C16.9792 22.4209 19.0592 21.8533 21.344 21.5552C22.6074 21.3904 23.9334 21.308 25.322 21.308C27.2208 21.308 29.0148 21.4682 30.704 21.7887C32.4844 22.1265 34.1484 22.6422 35.696 23.336C38.764 24.636 41.156 26.612 42.872 29.264C44.64 31.864 45.524 35.14 45.524 39.092V41.432H35.384V39.092C35.384 37.012 34.968 35.348 34.136 34.1C33.356 32.8 32.212 31.864 30.704 31.292C29.196 30.668 27.402 30.356 25.322 30.356C22.202 30.356 19.888 30.954 18.38 32.15C16.924 33.294 16.196 34.88 16.196 36.908C16.196 38.26 16.534 39.404 17.21 40.34C17.938 41.276 19.004 42.056 20.408 42.68C21.812 43.304 23.606 43.85 25.79 44.318L27.584 44.708C31.484 45.54 34.864 46.606 37.724 47.906C40.584 49.206 42.794 50.922 44.354 53.054C45.966 55.186 46.772 57.916 46.772 61.244C46.772 64.572 45.914 67.51 44.198 70.058C42.534 72.554 40.142 74.53 37.022 75.986C35.1329 76.8505 33.0269 77.4489 30.704 77.7811C29.2545 77.9884 27.7205 78.092 26.102 78.092Z" fill="currentColor"/>
<path d="M54.3727 89.636V80.744H92.5927V89.636H54.3727Z" fill="currentColor"/>
<path d="M30.704 13.352H21.344V21.5552C22.6074 21.3904 23.9334 21.308 25.322 21.308C27.2208 21.308 29.0148 21.4682 30.704 21.7887V13.352Z" fill="currentColor"/>
<path d="M21.344 86.048H30.704V77.7811C29.2545 77.9884 27.7205 78.092 26.102 78.092C24.439 78.092 22.853 77.9745 21.344 77.7394V86.048Z" fill="currentColor"/>
</svg>
